<?xml version="1.0" encoding="UTF-8"?>
<svg width="60px" height="60px" viewBox="0 0 60 60" version="1.1" xmlns="http://www.w3.org/2000/svg" xmlns:xlink="http://www.w3.org/1999/xlink">
    <!-- Generator: Sketch 43.1 (39012) - http://www.bohemiancoding.com/sketch -->
    <title>icon</title>
    <desc>Created with Sketch.</desc>
    <defs>
        <circle id="path-1" cx="28" cy="28" r="28"></circle>
        <filter x="-7.1%" y="-3.6%" width="114.3%" height="114.3%" filterUnits="objectBoundingBox" id="filter-2">
            <feOffset dx="0" dy="2" in="SourceAlpha" result="shadowOffsetOuter1"></feOffset>
            <feGaussianBlur stdDeviation="1" in="shadowOffsetOuter1" result="shadowBlurOuter1"></feGaussianBlur>
            <feComposite in="shadowBlurOuter1" in2="SourceAlpha" operator="out" result="shadowBlurOuter1"></feComposite>
            <feColorMatrix values="0 0 0 0 0   0 0 0 0 0   0 0 0 0 0  0 0 0 0.10436481 0" type="matrix" in="shadowBlurOuter1"></feColorMatrix>
        </filter>
    </defs>
    <g id="solution-page" stroke="none" stroke-width="1" fill="none" fill-rule="evenodd">
        <g id="solution-page-1440" transform="translate(-870.000000, -3147.000000)">
            <g id="Возможности-систем-видеонаблюдения" transform="translate(375.000000, 3032.000000)">
                <g id="card-2" transform="translate(360.000000, 68.000000)">
                    <g id="icon" transform="translate(137.000000, 47.000000)">
                        <g id="bg">
                            <use fill="black" fill-opacity="1" filter="url(#filter-2)" xlink:href="#path-1"></use>
                            <use fill="#FFFFFF" fill-rule="evenodd" xlink:href="#path-1"></use>
                            <circle stroke="#E3E3E3" stroke-width="1" cx="28" cy="28" r="27.5"></circle>
                        </g>
                        <g id="Group-2" transform="translate(14.000000, 14.000000)" stroke="#2796D1" stroke-width="2" stroke-linecap="round" stroke-linejoin="round">
                            <path d="M6.91973689,2 C2.77942969,4.43188233 3.55271368e-15,8.93148743 3.55271368e-15,14.0802631 C3.55271368e-15,21.8122496 6.2680135,28.0802631 14,28.0802631 C19.1487757,28.0802631 23.6483808,25.3008334 26.0802631,21.1605262 C24.0030147,22.3806347 21.5832108,23.0802631 19,23.0802631 C11.2680135,23.0802631 5,16.8122496 5,9.08026311 C5,6.4970523 5.69962843,4.07724846 6.91973689,2 Z" id="Combined-Shape"></path>
                            <circle id="Oval-2" cx="14" cy="14" r="14"></circle>
                        </g>
                    </g>
                </g>
            </g>
        </g>
    </g>
</svg>