<svg id="SvgjsSvg1061" xmlns="http://www.w3.org/2000/svg" version="1.1" xmlns:xlink="http://www.w3.org/1999/xlink" xmlns:svgjs="http://svgjs.com/svgjs" width="60" height="60" viewBox="0 0 60 60"><title>bg</title><desc>Created with Avocode.</desc><defs id="SvgjsDefs1062"><filter id="SvgjsFilter1064" width="200%" height="200%" x="-50%" y="-50%"><feMorphology id="SvgjsFeMorphology1065" operator="dilate" radius="0" result="SvgjsFeMorphology1065Out" in="SourceGraphic"></feMorphology><feOffset id="SvgjsFeOffset1066" dx="0" dy="2" result="SvgjsFeOffset1066Out" in="SvgjsFeMorphology1065Out"></feOffset><feGaussianBlur id="SvgjsFeGaussianBlur1067" stdDeviation="1 " result="SvgjsFeGaussianBlur1067Out" in="SvgjsFeOffset1066Out"></feGaussianBlur><feComposite id="SvgjsFeComposite1068" in="SvgjsFeGaussianBlur1067Out" in2="SourceAlpha" operator="out" result="SvgjsFeComposite1068Out"></feComposite></filter><clipPath id="SvgjsClipPath1072"><path id="SvgjsPath1071" d="M872 1794C872 1778.53603 884.53603 1766 900 1766C915.46397 1766 928 1778.53603 928 1794C928 1809.46397 915.46397 1822 900 1822C884.53603 1822 872 1809.46397 872 1794Z " fill="#ffffff"></path></clipPath></defs><path id="SvgjsPath1063" d="M872 1794C872 1778.53603 884.53603 1766 900 1766C915.46397 1766 928 1778.53603 928 1794C928 1809.46397 915.46397 1822 900 1822C884.53603 1822 872 1809.46397 872 1794Z " fill="#000000" fill-opacity="0.1" filter="url(#SvgjsFilter1064)" transform="matrix(1,0,0,1,-870,-1766)"></path><path id="SvgjsPath1069" d="M872 1794C872 1778.53603 884.53603 1766 900 1766C915.46397 1766 928 1778.53603 928 1794C928 1809.46397 915.46397 1822 900 1822C884.53603 1822 872 1809.46397 872 1794Z " fill="#ffffff" fill-opacity="1" transform="matrix(1,0,0,1,-870,-1766)"></path><path id="SvgjsPath1070" d="M872 1794C872 1778.53603 884.53603 1766 900 1766C915.46397 1766 928 1778.53603 928 1794C928 1809.46397 915.46397 1822 900 1822C884.53603 1822 872 1809.46397 872 1794Z " fill-opacity="0" fill="#ffffff" stroke-dashoffset="0" stroke-linejoin="miter" stroke-linecap="butt" stroke-opacity="1" stroke="#e3e3e3" stroke-miterlimit="50" stroke-width="2" clip-path="url(&quot;#SvgjsClipPath1072&quot;)" transform="matrix(1,0,0,1,-870,-1766)"></path><path id="SvgjsPath1073" d="M894 1785H906C910.41828 1785 914 1788.58172 914 1793C914 1797.41828 910.41828 1801 906 1801H897.5L895.5 1805L893.49207 1800.98414C889.3104500000001 1800.72214 886 1797.24767 886 1793C886 1788.58172 889.58172 1785 894 1785Z " fill-opacity="0" fill="#ffffff" stroke-dashoffset="0" stroke-linejoin="miter" stroke-linecap="butt" stroke-opacity="1" stroke="#2796d1" stroke-miterlimit="50" stroke-width="2" transform="matrix(1,0,0,1,-870,-1766)"></path><path id="SvgjsPath1074" d="M892 1791H901 " fill-opacity="0" fill="#ffffff" stroke-dashoffset="0" stroke-linejoin="miter" stroke-linecap="butt" stroke-opacity="1" stroke="#2796d1" stroke-miterlimit="50" stroke-width="2" transform="matrix(1,0,0,1,-870,-1766)"></path><path id="SvgjsPath1075" d="M908 1791H903 " fill-opacity="0" fill="#ffffff" stroke-dashoffset="0" stroke-linejoin="miter" stroke-linecap="butt" stroke-opacity="1" stroke="#2796d1" stroke-miterlimit="50" stroke-width="2" transform="matrix(1,0,0,1,-870,-1766)"></path><path id="SvgjsPath1076" d="M892 1795H895 " fill-opacity="0" fill="#ffffff" stroke-dashoffset="0" stroke-linejoin="miter" stroke-linecap="butt" stroke-opacity="1" stroke="#2796d1" stroke-miterlimit="50" stroke-width="2" transform="matrix(1,0,0,1,-870,-1766)"></path><path id="SvgjsPath1077" d="M908 1795H897 " fill-opacity="0" fill="#ffffff" stroke-dashoffset="0" stroke-linejoin="miter" stroke-linecap="butt" stroke-opacity="1" stroke="#2796d1" stroke-miterlimit="50" stroke-width="2" transform="matrix(1,0,0,1,-870,-1766)"></path></svg>