<svg id="SvgjsSvg1000" xmlns="http://www.w3.org/2000/svg" version="1.1" xmlns:xlink="http://www.w3.org/1999/xlink" xmlns:svgjs="http://svgjs.com/svgjs" width="60" height="60" viewBox="0 0 60 60"><title>bg</title><desc>Created with Avocode.</desc><defs id="SvgjsDefs1001"><filter id="SvgjsFilter1008" width="200%" height="200%" x="-50%" y="-50%"><feMorphology id="SvgjsFeMorphology1009" operator="dilate" radius="0" result="SvgjsFeMorphology1009Out" in="SourceGraphic"></feMorphology><feOffset id="SvgjsFeOffset1010" dx="0" dy="2" result="SvgjsFeOffset1010Out" in="SvgjsFeMorphology1009Out"></feOffset><feGaussianBlur id="SvgjsFeGaussianBlur1011" stdDeviation="1 " result="SvgjsFeGaussianBlur1011Out" in="SvgjsFeOffset1010Out"></feGaussianBlur><feComposite id="SvgjsFeComposite1012" in="SvgjsFeGaussianBlur1011Out" in2="SourceAlpha" operator="out" result="SvgjsFeComposite1012Out"></feComposite></filter><clipPath id="SvgjsClipPath1016"><path id="SvgjsPath1015" d="M512 1200C512 1184.53603 524.53603 1172 540 1172C555.46397 1172 568 1184.53603 568 1200C568 1215.46397 555.46397 1228 540 1228C524.53603 1228 512 1215.46397 512 1200Z " fill="#ffffff"></path></clipPath></defs><path id="SvgjsPath1007" d="M512 1200C512 1184.53603 524.53603 1172 540 1172C555.46397 1172 568 1184.53603 568 1200C568 1215.46397 555.46397 1228 540 1228C524.53603 1228 512 1215.46397 512 1200Z " fill="#000000" fill-opacity="0.1" filter="url(#SvgjsFilter1008)" transform="matrix(1,0,0,1,-510,-1172)"></path><path id="SvgjsPath1013" d="M512 1200C512 1184.53603 524.53603 1172 540 1172C555.46397 1172 568 1184.53603 568 1200C568 1215.46397 555.46397 1228 540 1228C524.53603 1228 512 1215.46397 512 1200Z " fill="#ffffff" fill-opacity="1" transform="matrix(1,0,0,1,-510,-1172)"></path><path id="SvgjsPath1014" d="M512 1200C512 1184.53603 524.53603 1172 540 1172C555.46397 1172 568 1184.53603 568 1200C568 1215.46397 555.46397 1228 540 1228C524.53603 1228 512 1215.46397 512 1200Z " fill-opacity="0" fill="#ffffff" stroke-dashoffset="0" stroke-linejoin="miter" stroke-linecap="butt" stroke-opacity="1" stroke="#e3e3e3" stroke-miterlimit="50" stroke-width="2" clip-path="url(&quot;#SvgjsClipPath1016&quot;)" transform="matrix(1,0,0,1,-510,-1172)"></path><path id="SvgjsPath1017" d="M548.62 1206.01L544.05 1203.79C543.62 1203.58 543.3499999999999 1203.1499999999999 543.3499999999999 1202.68V1201.1000000000001C543.4599999999999 1200.97 543.5699999999999 1200.8300000000002 543.6899999999999 1200.66C544.28 1199.8400000000001 544.76 1198.94 545.0999999999999 1197.95C545.7799999999999 1197.65 546.2199999999999 1197 546.2199999999999 1196.27V1194.4C546.2199999999999 1193.95 546.05 1193.52 545.7399999999999 1193.18V1190.69C545.7699999999999 1190.44 545.8699999999999 1188.91 544.7399999999999 1187.65C543.7599999999999 1186.5500000000002 542.1599999999999 1186 539.9999999999999 1186C537.8399999999999 1186 536.2399999999999 1186.55 535.2599999999999 1187.65C534.1299999999999 1188.91 534.2299999999999 1190.44 534.2599999999999 1190.69V1193.18C533.9499999999999 1193.52 533.7799999999999 1193.95 533.7799999999999 1194.4V1196.27C533.7799999999999 1196.83 534.0499999999998 1197.36 534.4999999999999 1197.72C534.9399999999999 1199.41 535.8499999999999 1200.69 536.1699999999998 1201.09V1202.6399999999999C536.1699999999998 1203.09 535.9199999999998 1203.5099999999998 535.5199999999999 1203.7199999999998L531.2499999999999 1205.9899999999998C529.8599999999999 1206.7299999999998 528.9999999999999 1208.1499999999999 528.9999999999999 1209.6899999999998V1211.1999999999998C528.9999999999999 1213.4099999999999 536.1999999999999 1213.9999999999998 539.9999999999999 1213.9999999999998C543.7999999999998 1213.9999999999998 550.9999999999999 1213.4099999999999 550.9999999999999 1211.1999999999998V1209.7799999999997C550.9999999999999 1208.1799999999998 550.0899999999999 1206.7299999999998 548.6199999999999 1206.0099999999998Z " fill-opacity="0" fill="#ffffff" stroke-dashoffset="0" stroke-linejoin="miter" stroke-linecap="butt" stroke-opacity="1" stroke="#2796d1" stroke-miterlimit="50" stroke-width="2" transform="matrix(1,0,0,1,-510,-1172)"></path></svg>