<svg id="SvgjsSvg1018" xmlns="http://www.w3.org/2000/svg" version="1.1" xmlns:xlink="http://www.w3.org/1999/xlink" xmlns:svgjs="http://svgjs.com/svgjs" width="60" height="60" viewBox="0 0 60 60"><title>bg</title><desc>Created with Avocode.</desc><defs id="SvgjsDefs1019"><filter id="SvgjsFilter1021" width="200%" height="200%" x="-50%" y="-50%"><feMorphology id="SvgjsFeMorphology1022" operator="dilate" radius="0" result="SvgjsFeMorphology1022Out" in="SourceGraphic"></feMorphology><feOffset id="SvgjsFeOffset1023" dx="0" dy="2" result="SvgjsFeOffset1023Out" in="SvgjsFeMorphology1022Out"></feOffset><feGaussianBlur id="SvgjsFeGaussianBlur1024" stdDeviation="1 " result="SvgjsFeGaussianBlur1024Out" in="SvgjsFeOffset1023Out"></feGaussianBlur><feComposite id="SvgjsFeComposite1025" in="SvgjsFeGaussianBlur1024Out" in2="SourceAlpha" operator="out" result="SvgjsFeComposite1025Out"></feComposite></filter><clipPath id="SvgjsClipPath1029"><path id="SvgjsPath1028" d="M1233 1794C1233 1778.53603 1245.53603 1766 1261 1766C1276.46397 1766 1289 1778.53603 1289 1794C1289 1809.46397 1276.46397 1822 1261 1822C1245.53603 1822 1233 1809.46397 1233 1794Z " fill="#ffffff"></path></clipPath></defs><path id="SvgjsPath1020" d="M1233 1794C1233 1778.53603 1245.53603 1766 1261 1766C1276.46397 1766 1289 1778.53603 1289 1794C1289 1809.46397 1276.46397 1822 1261 1822C1245.53603 1822 1233 1809.46397 1233 1794Z " fill="#000000" fill-opacity="0.1" filter="url(#SvgjsFilter1021)" transform="matrix(1,0,0,1,-1231,-1766)"></path><path id="SvgjsPath1026" d="M1233 1794C1233 1778.53603 1245.53603 1766 1261 1766C1276.46397 1766 1289 1778.53603 1289 1794C1289 1809.46397 1276.46397 1822 1261 1822C1245.53603 1822 1233 1809.46397 1233 1794Z " fill="#ffffff" fill-opacity="1" transform="matrix(1,0,0,1,-1231,-1766)"></path><path id="SvgjsPath1027" d="M1233 1794C1233 1778.53603 1245.53603 1766 1261 1766C1276.46397 1766 1289 1778.53603 1289 1794C1289 1809.46397 1276.46397 1822 1261 1822C1245.53603 1822 1233 1809.46397 1233 1794Z " fill-opacity="0" fill="#ffffff" stroke-dashoffset="0" stroke-linejoin="miter" stroke-linecap="butt" stroke-opacity="1" stroke="#e3e3e3" stroke-miterlimit="50" stroke-width="2" clip-path="url(&quot;#SvgjsClipPath1029&quot;)" transform="matrix(1,0,0,1,-1231,-1766)"></path><path id="SvgjsPath1030" d="M1261.31 1801L1253.09 1805.33L1254.6599999999999 1796.1599999999999L1247.9999999999998 1789.6699999999998L1257.1999999999998 1788.34L1261.3099999999997 1780L1265.4299999999996 1788.34L1274.6299999999997 1789.6699999999998L1267.9699999999996 1796.1599999999999L1269.5399999999995 1805.33Z " fill-opacity="0" fill="#ffffff" stroke-dashoffset="0" stroke-linejoin="miter" stroke-linecap="butt" stroke-opacity="1" stroke="#2796d1" stroke-miterlimit="50" stroke-width="2" transform="matrix(1,0,0,1,-1231,-1766)"></path></svg>