<svg id="SvgjsSvg1031" xmlns="http://www.w3.org/2000/svg" version="1.1" xmlns:xlink="http://www.w3.org/1999/xlink" xmlns:svgjs="http://svgjs.com/svgjs" width="60" height="60" viewBox="0 0 60 60"><title>bg</title><desc>Created with Avocode.</desc><defs id="SvgjsDefs1032"><filter id="SvgjsFilter1034" width="200%" height="200%" x="-50%" y="-50%"><feMorphology id="SvgjsFeMorphology1035" operator="dilate" radius="0" result="SvgjsFeMorphology1035Out" in="SourceGraphic"></feMorphology><feOffset id="SvgjsFeOffset1036" dx="0" dy="2" result="SvgjsFeOffset1036Out" in="SvgjsFeMorphology1035Out"></feOffset><feGaussianBlur id="SvgjsFeGaussianBlur1037" stdDeviation="1 " result="SvgjsFeGaussianBlur1037Out" in="SvgjsFeOffset1036Out"></feGaussianBlur><feComposite id="SvgjsFeComposite1038" in="SvgjsFeGaussianBlur1037Out" in2="SourceAlpha" operator="out" result="SvgjsFeComposite1038Out"></feComposite></filter><clipPath id="SvgjsClipPath1042"><path id="SvgjsPath1041" d="M1233 1200C1233 1184.53603 1245.53603 1172 1261 1172C1276.46397 1172 1289 1184.53603 1289 1200C1289 1215.46397 1276.46397 1228 1261 1228C1245.53603 1228 1233 1215.46397 1233 1200Z " fill="#ffffff"></path></clipPath></defs><path id="SvgjsPath1033" d="M1233 1200C1233 1184.53603 1245.53603 1172 1261 1172C1276.46397 1172 1289 1184.53603 1289 1200C1289 1215.46397 1276.46397 1228 1261 1228C1245.53603 1228 1233 1215.46397 1233 1200Z " fill="#000000" fill-opacity="0.1" filter="url(#SvgjsFilter1034)" transform="matrix(1,0,0,1,-1231,-1172)"></path><path id="SvgjsPath1039" d="M1233 1200C1233 1184.53603 1245.53603 1172 1261 1172C1276.46397 1172 1289 1184.53603 1289 1200C1289 1215.46397 1276.46397 1228 1261 1228C1245.53603 1228 1233 1215.46397 1233 1200Z " fill="#ffffff" fill-opacity="1" transform="matrix(1,0,0,1,-1231,-1172)"></path><path id="SvgjsPath1040" d="M1233 1200C1233 1184.53603 1245.53603 1172 1261 1172C1276.46397 1172 1289 1184.53603 1289 1200C1289 1215.46397 1276.46397 1228 1261 1228C1245.53603 1228 1233 1215.46397 1233 1200Z " fill-opacity="0" fill="#ffffff" stroke-dashoffset="0" stroke-linejoin="miter" stroke-linecap="butt" stroke-opacity="1" stroke="#e3e3e3" stroke-miterlimit="50" stroke-width="2" clip-path="url(&quot;#SvgjsClipPath1042&quot;)" transform="matrix(1,0,0,1,-1231,-1172)"></path><path id="SvgjsPath1043" d="M1274.98 1198.18C1273.65 1198.18 1272.47 1197.4 1271.97 1196.19C1271.47 1194.95 1271.79 1193.51 1272.78 1192.6000000000001C1273.1 1192.3200000000002 1273.1299999999999 1191.8400000000001 1272.87 1191.5100000000002C1272.1899999999998 1190.6500000000003 1271.4199999999998 1189.8700000000001 1270.58 1189.1900000000003C1270.25 1188.9200000000003 1269.76 1188.9600000000003 1269.47 1189.2800000000002C1268.6100000000001 1190.2400000000002 1267.06 1190.5900000000001 1265.8600000000001 1190.0900000000001C1264.6100000000001 1189.5700000000002 1263.8200000000002 1188.3000000000002 1263.9 1186.94C1263.92 1186.52 1263.6100000000001 1186.15 1263.19 1186.1000000000001C1262.1000000000001 1185.97 1261.01 1185.97 1259.93 1186.0900000000001C1259.5 1186.13 1259.19 1186.5000000000002 1259.21 1186.92C1259.25 1188.26 1258.46 1189.51 1257.22 1190.01C1256.04 1190.5 1254.49 1190.14 1253.63 1189.19C1253.3500000000001 1188.88 1252.8700000000001 1188.8400000000001 1252.5400000000002 1189.1000000000001C1251.6700000000003 1189.7800000000002 1250.88 1190.5600000000002 1250.1900000000003 1191.42C1249.9200000000003 1191.75 1249.9600000000003 1192.24 1250.2800000000002 1192.52C1251.2900000000002 1193.44 1251.6100000000001 1194.8899999999999 1251.0900000000001 1196.1399999999999C1250.5900000000001 1197.33 1249.3500000000001 1198.1 1247.93 1198.1C1247.47 1198.09 1247.15 1198.3899999999999 1247.1000000000001 1198.81C1246.97 1199.8999999999999 1246.97 1201.01 1247.0900000000001 1202.11C1247.14 1202.52 1247.63 1202.82 1248.0400000000002 1202.82C1249.3000000000002 1202.79 1250.5200000000002 1203.57 1251.0300000000002 1204.81C1251.5300000000002 1206.05 1251.2100000000003 1207.49 1250.2100000000003 1208.3999999999999C1249.9000000000003 1208.6799999999998 1249.8600000000004 1209.1599999999999 1250.1300000000003 1209.4899999999998C1250.8000000000004 1210.3499999999997 1251.5700000000004 1211.1299999999999 1252.4200000000003 1211.8099999999997C1252.7500000000002 1212.0799999999997 1253.2400000000002 1212.0399999999997 1253.5200000000002 1211.7199999999998C1254.39 1210.7599999999998 1255.9400000000003 1210.4099999999999 1257.14 1210.9099999999999C1258.39 1211.4299999999998 1259.18 1212.6999999999998 1259.1000000000001 1214.06C1259.0700000000002 1214.48 1259.39 1214.85 1259.8100000000002 1214.8999999999999C1260.3700000000001 1214.9699999999998 1260.92 1214.9999999999998 1261.4800000000002 1214.9999999999998C1262.0100000000002 1214.9999999999998 1262.5400000000002 1214.9699999999998 1263.0700000000002 1214.9099999999999C1263.4900000000002 1214.87 1263.8100000000002 1214.4999999999998 1263.7900000000002 1214.08C1263.7400000000002 1212.74 1264.5400000000002 1211.49 1265.7800000000002 1210.99C1266.9700000000003 1210.5 1268.5000000000002 1210.86 1269.3700000000001 1211.81C1269.65 1212.12 1270.13 1212.1599999999999 1270.46 1211.8999999999999C1271.33 1211.2199999999998 1272.1200000000001 1210.4399999999998 1272.81 1209.58C1273.07 1209.25 1273.04 1208.76 1272.72 1208.48C1271.71 1207.56 1271.38 1206.1100000000001 1271.91 1204.8600000000001C1272.4 1203.68 1273.5900000000001 1202.89 1274.8700000000001 1202.89L1275.0500000000002 1202.9C1275.4700000000003 1202.93 1275.8500000000001 1202.6100000000001 1275.9 1202.19C1276.0300000000002 1201.1000000000001 1276.0300000000002 1199.99 1275.91 1198.89C1275.8600000000001 1198.48 1275.39 1198.18 1274.98 1198.18ZM1256.69 1200.53C1256.69 1197.86 1258.8600000000001 1195.69 1261.52 1195.69C1264.19 1195.69 1266.36 1197.8600000000001 1266.36 1200.53C1266.36 1203.2 1264.1899999999998 1205.37 1261.52 1205.37C1258.86 1205.37 1256.69 1203.1999999999998 1256.69 1200.53Z " fill-opacity="0" fill="#ffffff" stroke-dashoffset="0" stroke-linejoin="miter" stroke-linecap="butt" stroke-opacity="1" stroke="#2796d1" stroke-miterlimit="50" stroke-width="2" transform="matrix(1,0,0,1,-1231,-1172)"></path></svg>