<svg id="SvgjsSvg1044" xmlns="http://www.w3.org/2000/svg" version="1.1" xmlns:xlink="http://www.w3.org/1999/xlink" xmlns:svgjs="http://svgjs.com/svgjs" width="60" height="60" viewBox="0 0 60 60"><title>bg</title><desc>Created with Avocode.</desc><defs id="SvgjsDefs1045"><filter id="SvgjsFilter1047" width="200%" height="200%" x="-50%" y="-50%"><feMorphology id="SvgjsFeMorphology1048" operator="dilate" radius="0" result="SvgjsFeMorphology1048Out" in="SourceGraphic"></feMorphology><feOffset id="SvgjsFeOffset1049" dx="0" dy="2" result="SvgjsFeOffset1049Out" in="SvgjsFeMorphology1048Out"></feOffset><feGaussianBlur id="SvgjsFeGaussianBlur1050" stdDeviation="1 " result="SvgjsFeGaussianBlur1050Out" in="SvgjsFeOffset1049Out"></feGaussianBlur><feComposite id="SvgjsFeComposite1051" in="SvgjsFeGaussianBlur1050Out" in2="SourceAlpha" operator="out" result="SvgjsFeComposite1051Out"></feComposite></filter><clipPath id="SvgjsClipPath1055"><path id="SvgjsPath1054" d="M512 1794C512 1778.53603 524.53603 1766 540 1766C555.46397 1766 568 1778.53603 568 1794C568 1809.46397 555.46397 1822 540 1822C524.53603 1822 512 1809.46397 512 1794Z " fill="#ffffff"></path></clipPath></defs><path id="SvgjsPath1046" d="M512 1794C512 1778.53603 524.53603 1766 540 1766C555.46397 1766 568 1778.53603 568 1794C568 1809.46397 555.46397 1822 540 1822C524.53603 1822 512 1809.46397 512 1794Z " fill="#000000" fill-opacity="0.1" filter="url(#SvgjsFilter1047)" transform="matrix(1,0,0,1,-510,-1766)"></path><path id="SvgjsPath1052" d="M512 1794C512 1778.53603 524.53603 1766 540 1766C555.46397 1766 568 1778.53603 568 1794C568 1809.46397 555.46397 1822 540 1822C524.53603 1822 512 1809.46397 512 1794Z " fill="#ffffff" fill-opacity="1" transform="matrix(1,0,0,1,-510,-1766)"></path><path id="SvgjsPath1053" d="M512 1794C512 1778.53603 524.53603 1766 540 1766C555.46397 1766 568 1778.53603 568 1794C568 1809.46397 555.46397 1822 540 1822C524.53603 1822 512 1809.46397 512 1794Z " fill-opacity="0" fill="#ffffff" stroke-dashoffset="0" stroke-linejoin="miter" stroke-linecap="butt" stroke-opacity="1" stroke="#e3e3e3" stroke-miterlimit="50" stroke-width="2" clip-path="url(&quot;#SvgjsClipPath1055&quot;)" transform="matrix(1,0,0,1,-510,-1766)"></path><path id="SvgjsPath1056" d="M526 1806V1788H554V1806Z " fill-opacity="0" fill="#ffffff" stroke-dashoffset="0" stroke-linejoin="miter" stroke-linecap="butt" stroke-opacity="1" stroke="#2796d1" stroke-miterlimit="50" stroke-width="2" transform="matrix(1,0,0,1,-510,-1766)"></path><path id="SvgjsPath1057" d="M526 1788V1782H554V1788Z " fill-opacity="0" fill="#ffffff" stroke-dashoffset="0" stroke-linejoin="miter" stroke-linecap="butt" stroke-opacity="1" stroke="#2796d1" stroke-miterlimit="50" stroke-width="2" transform="matrix(1,0,0,1,-510,-1766)"></path><path id="SvgjsPath1058" d="M548 1779V1784 " fill-opacity="0" fill="#ffffff" stroke-dashoffset="0" stroke-linejoin="miter" stroke-linecap="butt" stroke-opacity="1" stroke="#2796d1" stroke-miterlimit="50" stroke-width="2" transform="matrix(1,0,0,1,-510,-1766)"></path><path id="SvgjsPath1059" d="M540 1793V1801 " fill-opacity="0" fill="#ffffff" stroke-dashoffset="0" stroke-linejoin="miter" stroke-linecap="butt" stroke-opacity="1" stroke="#2796d1" stroke-miterlimit="50" stroke-width="2" transform="matrix(1,0,0,1,-510,-1766)"></path><path id="SvgjsPath1060" d="M532 1779V1784 " fill-opacity="0" fill="#ffffff" stroke-dashoffset="0" stroke-linejoin="miter" stroke-linecap="butt" stroke-opacity="1" stroke="#2796d1" stroke-miterlimit="50" stroke-width="2" transform="matrix(1,0,0,1,-510,-1766)"></path></svg>