<svg id="SvgjsSvg1095" xmlns="http://www.w3.org/2000/svg" version="1.1" xmlns:xlink="http://www.w3.org/1999/xlink" xmlns:svgjs="http://svgjs.com/svgjs" width="60" height="60" viewBox="0 0 60 60"><title>bg</title><desc>Created with Avocode.</desc><defs id="SvgjsDefs1096"><filter id="SvgjsFilter1098" width="200%" height="200%" x="-50%" y="-50%"><feMorphology id="SvgjsFeMorphology1099" operator="dilate" radius="0" result="SvgjsFeMorphology1099Out" in="SourceGraphic"></feMorphology><feOffset id="SvgjsFeOffset1100" dx="0" dy="2" result="SvgjsFeOffset1100Out" in="SvgjsFeMorphology1099Out"></feOffset><feGaussianBlur id="SvgjsFeGaussianBlur1101" stdDeviation="1 " result="SvgjsFeGaussianBlur1101Out" in="SvgjsFeOffset1100Out"></feGaussianBlur><feComposite id="SvgjsFeComposite1102" in="SvgjsFeGaussianBlur1101Out" in2="SourceAlpha" operator="out" result="SvgjsFeComposite1102Out"></feComposite></filter><clipPath id="SvgjsClipPath1106"><path id="SvgjsPath1105" d="M512 1448C512 1432.53603 524.53603 1420 540 1420C555.46397 1420 568 1432.53603 568 1448C568 1463.46397 555.46397 1476 540 1476C524.53603 1476 512 1463.46397 512 1448Z " fill="#ffffff"></path></clipPath></defs><path id="SvgjsPath1097" d="M512 1448C512 1432.53603 524.53603 1420 540 1420C555.46397 1420 568 1432.53603 568 1448C568 1463.46397 555.46397 1476 540 1476C524.53603 1476 512 1463.46397 512 1448Z " fill="#000000" fill-opacity="0.1" filter="url(#SvgjsFilter1098)" transform="matrix(1,0,0,1,-510,-1420)"></path><path id="SvgjsPath1103" d="M512 1448C512 1432.53603 524.53603 1420 540 1420C555.46397 1420 568 1432.53603 568 1448C568 1463.46397 555.46397 1476 540 1476C524.53603 1476 512 1463.46397 512 1448Z " fill="#ffffff" fill-opacity="1" transform="matrix(1,0,0,1,-510,-1420)"></path><path id="SvgjsPath1104" d="M512 1448C512 1432.53603 524.53603 1420 540 1420C555.46397 1420 568 1432.53603 568 1448C568 1463.46397 555.46397 1476 540 1476C524.53603 1476 512 1463.46397 512 1448Z " fill-opacity="0" fill="#ffffff" stroke-dashoffset="0" stroke-linejoin="miter" stroke-linecap="butt" stroke-opacity="1" stroke="#e3e3e3" stroke-miterlimit="50" stroke-width="2" clip-path="url(&quot;#SvgjsClipPath1106&quot;)" transform="matrix(1,0,0,1,-510,-1420)"></path><path id="SvgjsPath1107" d="M526 1448C526 1440.26801 532.26801 1434 540 1434C547.73199 1434 554 1440.26801 554 1448C554 1455.73199 547.73199 1462 540 1462C532.26801 1462 526 1455.73199 526 1448Z " fill-opacity="0" fill="#ffffff" stroke-dashoffset="0" stroke-linejoin="miter" stroke-linecap="butt" stroke-opacity="1" stroke="#2796d1" stroke-miterlimit="50" stroke-width="2" transform="matrix(1,0,0,1,-510,-1420)"></path><path id="SvgjsPath1108" d="M539 1440V1449.21H546.44 " fill-opacity="0" fill="#ffffff" stroke-dashoffset="0" stroke-linejoin="miter" stroke-linecap="butt" stroke-opacity="1" stroke="#2796d1" stroke-miterlimit="50" stroke-width="2" transform="matrix(1,0,0,1,-510,-1420)"></path></svg>