<svg id="SvgjsSvg1078" xmlns="http://www.w3.org/2000/svg" version="1.1" xmlns:xlink="http://www.w3.org/1999/xlink" xmlns:svgjs="http://svgjs.com/svgjs" width="60" height="60" viewBox="0 0 60 60"><title>bg</title><desc>Created with Avocode.</desc><defs id="SvgjsDefs1079"><filter id="SvgjsFilter1081" width="200%" height="200%" x="-50%" y="-50%"><feMorphology id="SvgjsFeMorphology1082" operator="dilate" radius="0" result="SvgjsFeMorphology1082Out" in="SourceGraphic"></feMorphology><feOffset id="SvgjsFeOffset1083" dx="0" dy="2" result="SvgjsFeOffset1083Out" in="SvgjsFeMorphology1082Out"></feOffset><feGaussianBlur id="SvgjsFeGaussianBlur1084" stdDeviation="1 " result="SvgjsFeGaussianBlur1084Out" in="SvgjsFeOffset1083Out"></feGaussianBlur><feComposite id="SvgjsFeComposite1085" in="SvgjsFeGaussianBlur1084Out" in2="SourceAlpha" operator="out" result="SvgjsFeComposite1085Out"></feComposite></filter><clipPath id="SvgjsClipPath1089"><path id="SvgjsPath1088" d="M872 1200C872 1184.53603 884.53603 1172 900 1172C915.46397 1172 928 1184.53603 928 1200C928 1215.46397 915.46397 1228 900 1228C884.53603 1228 872 1215.46397 872 1200Z " fill="#ffffff"></path></clipPath></defs><path id="SvgjsPath1080" d="M872 1200C872 1184.53603 884.53603 1172 900 1172C915.46397 1172 928 1184.53603 928 1200C928 1215.46397 915.46397 1228 900 1228C884.53603 1228 872 1215.46397 872 1200Z " fill="#000000" fill-opacity="0.1" filter="url(#SvgjsFilter1081)" transform="matrix(1,0,0,1,-870,-1172)"></path><path id="SvgjsPath1086" d="M872 1200C872 1184.53603 884.53603 1172 900 1172C915.46397 1172 928 1184.53603 928 1200C928 1215.46397 915.46397 1228 900 1228C884.53603 1228 872 1215.46397 872 1200Z " fill="#ffffff" fill-opacity="1" transform="matrix(1,0,0,1,-870,-1172)"></path><path id="SvgjsPath1087" d="M872 1200C872 1184.53603 884.53603 1172 900 1172C915.46397 1172 928 1184.53603 928 1200C928 1215.46397 915.46397 1228 900 1228C884.53603 1228 872 1215.46397 872 1200Z " fill-opacity="0" fill="#ffffff" stroke-dashoffset="0" stroke-linejoin="miter" stroke-linecap="butt" stroke-opacity="1" stroke="#e3e3e3" stroke-miterlimit="50" stroke-width="2" clip-path="url(&quot;#SvgjsClipPath1089&quot;)" transform="matrix(1,0,0,1,-870,-1172)"></path><path id="SvgjsPath1090" d="M910.27 1196C910.27 1190.48 905.74 1186 900.14 1186C894.54 1186 890 1190.48 890 1196 " fill-opacity="0" fill="#ffffff" stroke-dashoffset="0" stroke-linejoin="miter" stroke-linecap="butt" stroke-opacity="1" stroke="#2796d1" stroke-miterlimit="50" stroke-width="2" transform="matrix(1,0,0,1,-870,-1172)"></path><path id="SvgjsPath1091" d="M910 1212C910 1207.06 906.56 1202.94 902 1202 " fill-opacity="0" fill="#ffffff" stroke-dashoffset="0" stroke-linejoin="miter" stroke-linecap="butt" stroke-opacity="1" stroke="#2796d1" stroke-miterlimit="50" stroke-width="2" transform="matrix(1,0,0,1,-870,-1172)"></path><path id="SvgjsPath1092" d="M887 1198C887 1196.89543 887.89543 1196 889 1196H891V1196V1202V1202H889C887.89543 1202 887 1201.10457 887 1200Z " fill-opacity="0" fill="#ffffff" stroke-dashoffset="0" stroke-linejoin="miter" stroke-linecap="butt" stroke-opacity="1" stroke="#2796d1" stroke-miterlimit="50" stroke-width="2" transform="matrix(1,0,0,1,-870,-1172)"></path><path id="SvgjsPath1093" d="M909 1198C909 1196.89543 909.89543 1196 911 1196H913V1196V1202V1202H911C909.89543 1202 909 1201.10457 909 1200Z " fill-opacity="0" fill="#ffffff" stroke-dashoffset="0" stroke-linejoin="miter" stroke-linecap="butt" stroke-opacity="1" stroke="#2796d1" stroke-miterlimit="50" stroke-width="2" transform="matrix(1,0,0,1,-870,-1172)"></path><path id="SvgjsPath1094" d="M898 1212.5C898 1211.67157 898.67157 1211 899.5 1211H900.5C901.32843 1211 902 1211.67157 902 1212.5V1212.5C902 1213.32843 901.32843 1214 900.5 1214H899.5C898.67157 1214 898 1213.32843 898 1212.5Z " fill-opacity="0" fill="#ffffff" stroke-dashoffset="0" stroke-linejoin="miter" stroke-linecap="butt" stroke-opacity="1" stroke="#2796d1" stroke-miterlimit="50" stroke-width="2" transform="matrix(1,0,0,1,-870,-1172)"></path></svg>