<svg id="SvgjsSvg1126" xmlns="http://www.w3.org/2000/svg" version="1.1" xmlns:xlink="http://www.w3.org/1999/xlink" xmlns:svgjs="http://svgjs.com/svgjs" width="60" height="60" viewBox="0 0 60 60"><title>bg</title><desc>Created with Avocode.</desc><defs id="SvgjsDefs1127"><filter id="SvgjsFilter1129" width="200%" height="200%" x="-50%" y="-50%"><feMorphology id="SvgjsFeMorphology1130" operator="dilate" radius="0" result="SvgjsFeMorphology1130Out" in="SourceGraphic"></feMorphology><feOffset id="SvgjsFeOffset1131" dx="0" dy="2" result="SvgjsFeOffset1131Out" in="SvgjsFeMorphology1130Out"></feOffset><feGaussianBlur id="SvgjsFeGaussianBlur1132" stdDeviation="1 " result="SvgjsFeGaussianBlur1132Out" in="SvgjsFeOffset1131Out"></feGaussianBlur><feComposite id="SvgjsFeComposite1133" in="SvgjsFeGaussianBlur1132Out" in2="SourceAlpha" operator="out" result="SvgjsFeComposite1133Out"></feComposite></filter><clipPath id="SvgjsClipPath1137"><path id="SvgjsPath1136" d="M1233 1448C1233 1432.53603 1245.53603 1420 1261 1420C1276.46397 1420 1289 1432.53603 1289 1448C1289 1463.46397 1276.46397 1476 1261 1476C1245.53603 1476 1233 1463.46397 1233 1448Z " fill="#ffffff"></path></clipPath></defs><path id="SvgjsPath1128" d="M1233 1448C1233 1432.53603 1245.53603 1420 1261 1420C1276.46397 1420 1289 1432.53603 1289 1448C1289 1463.46397 1276.46397 1476 1261 1476C1245.53603 1476 1233 1463.46397 1233 1448Z " fill="#000000" fill-opacity="0.1" filter="url(#SvgjsFilter1129)" transform="matrix(1,0,0,1,-1231,-1420)"></path><path id="SvgjsPath1134" d="M1233 1448C1233 1432.53603 1245.53603 1420 1261 1420C1276.46397 1420 1289 1432.53603 1289 1448C1289 1463.46397 1276.46397 1476 1261 1476C1245.53603 1476 1233 1463.46397 1233 1448Z " fill="#ffffff" fill-opacity="1" transform="matrix(1,0,0,1,-1231,-1420)"></path><path id="SvgjsPath1135" d="M1233 1448C1233 1432.53603 1245.53603 1420 1261 1420C1276.46397 1420 1289 1432.53603 1289 1448C1289 1463.46397 1276.46397 1476 1261 1476C1245.53603 1476 1233 1463.46397 1233 1448Z " fill-opacity="0" fill="#ffffff" stroke-dashoffset="0" stroke-linejoin="miter" stroke-linecap="butt" stroke-opacity="1" stroke="#e3e3e3" stroke-miterlimit="50" stroke-width="2" clip-path="url(&quot;#SvgjsClipPath1137&quot;)" transform="matrix(1,0,0,1,-1231,-1420)"></path><path id="SvgjsPath1138" d="M1250 1444.5C1250 1438.70101 1254.92487 1434 1261 1434C1267.07513 1434 1272 1438.70101 1272 1444.5C1272 1450.29899 1267.07513 1455 1261 1455C1254.92487 1455 1250 1450.29899 1250 1444.5Z " fill-opacity="0" fill="#ffffff" stroke-dashoffset="0" stroke-linejoin="miter" stroke-linecap="butt" stroke-opacity="1" stroke="#2796d1" stroke-miterlimit="50" stroke-width="2" transform="matrix(1,0,0,1,-1231,-1420)"></path><path id="SvgjsPath1139" d="M1254 1444.5C1254 1440.91015 1257.13401 1438 1261 1438C1264.86599 1438 1268 1440.91015 1268 1444.5C1268 1448.08985 1264.86599 1451 1261 1451C1257.13401 1451 1254 1448.08985 1254 1444.5Z " fill-opacity="0" fill="#ffffff" stroke-dashoffset="0" stroke-linejoin="miter" stroke-linecap="butt" stroke-opacity="1" stroke="#2796d1" stroke-miterlimit="50" stroke-width="2" transform="matrix(1,0,0,1,-1231,-1420)"></path><path id="SvgjsPath1140" d="M1266.15 1454V1462.24L1261.0800000000002 1459.76L1256.0000000000002 1462.24V1454 " fill-opacity="0" fill="#ffffff" stroke-dashoffset="0" stroke-linejoin="miter" stroke-linecap="butt" stroke-opacity="1" stroke="#2796d1" stroke-miterlimit="50" stroke-width="2" transform="matrix(1,0,0,1,-1231,-1420)"></path></svg>