<svg id="SvgjsSvg1109" xmlns="http://www.w3.org/2000/svg" version="1.1" xmlns:xlink="http://www.w3.org/1999/xlink" xmlns:svgjs="http://svgjs.com/svgjs" width="60" height="60" viewBox="0 0 60 60"><title>bg</title><desc>Created with Avocode.</desc><defs id="SvgjsDefs1110"><filter id="SvgjsFilter1112" width="200%" height="200%" x="-50%" y="-50%"><feMorphology id="SvgjsFeMorphology1113" operator="dilate" radius="0" result="SvgjsFeMorphology1113Out" in="SourceGraphic"></feMorphology><feOffset id="SvgjsFeOffset1114" dx="0" dy="2" result="SvgjsFeOffset1114Out" in="SvgjsFeMorphology1113Out"></feOffset><feGaussianBlur id="SvgjsFeGaussianBlur1115" stdDeviation="1 " result="SvgjsFeGaussianBlur1115Out" in="SvgjsFeOffset1114Out"></feGaussianBlur><feComposite id="SvgjsFeComposite1116" in="SvgjsFeGaussianBlur1115Out" in2="SourceAlpha" operator="out" result="SvgjsFeComposite1116Out"></feComposite></filter><clipPath id="SvgjsClipPath1120"><path id="SvgjsPath1119" d="M872 1448C872 1432.53603 884.53603 1420 900 1420C915.46397 1420 928 1432.53603 928 1448C928 1463.46397 915.46397 1476 900 1476C884.53603 1476 872 1463.46397 872 1448Z " fill="#ffffff"></path></clipPath></defs><path id="SvgjsPath1111" d="M872 1448C872 1432.53603 884.53603 1420 900 1420C915.46397 1420 928 1432.53603 928 1448C928 1463.46397 915.46397 1476 900 1476C884.53603 1476 872 1463.46397 872 1448Z " fill="#000000" fill-opacity="0.1" filter="url(#SvgjsFilter1112)" transform="matrix(1,0,0,1,-870,-1420)"></path><path id="SvgjsPath1117" d="M872 1448C872 1432.53603 884.53603 1420 900 1420C915.46397 1420 928 1432.53603 928 1448C928 1463.46397 915.46397 1476 900 1476C884.53603 1476 872 1463.46397 872 1448Z " fill="#ffffff" fill-opacity="1" transform="matrix(1,0,0,1,-870,-1420)"></path><path id="SvgjsPath1118" d="M872 1448C872 1432.53603 884.53603 1420 900 1420C915.46397 1420 928 1432.53603 928 1448C928 1463.46397 915.46397 1476 900 1476C884.53603 1476 872 1463.46397 872 1448Z " fill-opacity="0" fill="#ffffff" stroke-dashoffset="0" stroke-linejoin="miter" stroke-linecap="butt" stroke-opacity="1" stroke="#e3e3e3" stroke-miterlimit="50" stroke-width="2" clip-path="url(&quot;#SvgjsClipPath1120&quot;)" transform="matrix(1,0,0,1,-870,-1420)"></path><path id="SvgjsPath1121" d="M886 1440C886 1439.44772 886.44772 1439 887 1439H913C913.55228 1439 914 1439.44772 914 1440V1458C914 1458.55228 913.55228 1459 913 1459H887C886.44772 1459 886 1458.55228 886 1458Z " fill-opacity="0" fill="#ffffff" stroke-dashoffset="0" stroke-linejoin="miter" stroke-linecap="butt" stroke-opacity="1" stroke="#2796d1" stroke-miterlimit="50" stroke-width="2" transform="matrix(1,0,0,1,-870,-1420)"></path><path id="SvgjsPath1122" d="M894 1435C894 1434.44772 894.44772 1434 895 1434H905C905.55228 1434 906 1434.44772 906 1435V1438C906 1438.55228 905.55228 1439 905 1439H895C894.44772 1439 894 1438.55228 894 1438Z " fill-opacity="0" fill="#ffffff" stroke-dashoffset="0" stroke-linejoin="miter" stroke-linecap="butt" stroke-opacity="1" stroke="#2796d1" stroke-miterlimit="50" stroke-width="2" transform="matrix(1,0,0,1,-870,-1420)"></path><path id="SvgjsPath1123" d="M897 1449C897 1448.44772 897.44772 1448 898 1448H902C902.55228 1448 903 1448.44772 903 1449V1451C903 1451.55228 902.55228 1452 902 1452H898C897.44772 1452 897 1451.55228 897 1451Z " fill-opacity="0" fill="#ffffff" stroke-dashoffset="0" stroke-linejoin="miter" stroke-linecap="butt" stroke-opacity="1" stroke="#2796d1" stroke-miterlimit="50" stroke-width="2" transform="matrix(1,0,0,1,-870,-1420)"></path><path id="SvgjsPath1124" d="M886 1446L896.99 1449.86 " fill-opacity="0" fill="#ffffff" stroke-dashoffset="0" stroke-linejoin="miter" stroke-linecap="butt" stroke-opacity="1" stroke="#2796d1" stroke-miterlimit="50" stroke-width="2" transform="matrix(1,0,0,1,-870,-1420)"></path><path id="SvgjsPath1125" d="M903 1446L913.99 1449.86 " fill-opacity="0" fill="#ffffff" stroke-dashoffset="0" stroke-linejoin="miter" stroke-linecap="butt" stroke-opacity="1" stroke="#2796d1" stroke-miterlimit="50" stroke-width="2" transform="matrix(1,0,0,1,-870,-1420)"></path></svg>