<svg id="SvgjsSvg1045" xmlns="http://www.w3.org/2000/svg" version="1.1" xmlns:xlink="http://www.w3.org/1999/xlink" xmlns:svgjs="http://svgjs.com/svgjs" width="23.210275259913033" height="22.253767789534322" viewBox="0 0 23.210275259913033 22.253767789534322"><title>icon</title><desc>Created with Avocode.</desc><defs id="SvgjsDefs1046"></defs><path id="SvgjsPath1047" d="M1134.55 404.82L1131.46 401.71999999999997C1130.8500000000001 401.10999999999996 1129.83 401.13 1129.19 401.77L1127.64 403.33C1127.5400000000002 403.27 1127.44 403.21 1127.3300000000002 403.15C1126.3500000000001 402.60999999999996 1125.0000000000002 401.85999999999996 1123.5900000000001 400.44C1122.17 399.02 1121.42 397.67 1120.8700000000001 396.68C1120.8200000000002 396.58 1120.7600000000002 396.48 1120.71 396.38L1121.75 395.34L1122.26 394.82C1122.9 394.18 1122.92 393.15999999999997 1122.31 392.55L1119.22 389.45C1118.6000000000001 388.83 1117.58 388.84999999999997 1116.95 389.49L1116.0800000000002 390.37L1116.1000000000001 390.39C1115.8100000000002 390.77 1115.5600000000002 391.2 1115.38 391.65999999999997C1115.21 392.09999999999997 1115.1100000000001 392.52 1115.0600000000002 392.95C1114.66 396.34 1116.2000000000003 399.43 1120.39 403.64C1126.19 409.44 1130.8600000000001 409.01 1131.0600000000002 408.97999999999996C1131.5000000000002 408.92999999999995 1131.92 408.83 1132.3500000000001 408.65999999999997C1132.8100000000002 408.47999999999996 1133.2400000000002 408.23999999999995 1133.6100000000001 407.93999999999994L1133.63 407.9599999999999L1134.5100000000002 407.0999999999999C1135.1500000000003 406.4599999999999 1135.1700000000003 405.4399999999999 1134.5500000000002 404.81999999999994Z " fill-opacity="0" fill="#ffffff" stroke-dashoffset="0" stroke-linejoin="miter" stroke-linecap="butt" stroke-opacity="1" stroke="#2796d1" stroke-miterlimit="50" stroke-width="2" transform="matrix(1,0,0,1,-1113.3948623700435,-387.37311610523284)"></path></svg>