<svg id="SvgjsSvg1000" xmlns="http://www.w3.org/2000/svg" version="1.1" xmlns:xlink="http://www.w3.org/1999/xlink" xmlns:svgjs="http://svgjs.com/svgjs" width="148" height="47" viewBox="0 0 148 47"><title>Fill 1</title><desc>Created with Avocode.</desc><defs id="SvgjsDefs1001"></defs><path id="SvgjsPath1007" d="M40.84 37.07C40.63 38.32 40.13 39.28 39.34 39.97C38.550000000000004 40.66 37.580000000000005 41.01 36.440000000000005 41.01C35.150000000000006 41.01 34.07000000000001 40.55 33.2 39.64C32.95 39.39 32.760000000000005 39.12 32.61 38.82C32.46 38.53 32.339999999999996 38.26 32.25 38.03C32.16 37.79 32.1 37.44 32.07 36.980000000000004C32.03 36.53 32.01 36.160000000000004 32.01 35.89C31.999999999999996 35.61 31.999999999999996 35.15 31.999999999999996 34.5C31.999999999999996 33.86 31.999999999999996 33.4 32.01 33.12C32.01 32.849999999999994 32.03 32.48 32.07 32.019999999999996C32.1 31.569999999999997 32.160000000000004 31.219999999999995 32.25 30.979999999999997C32.34 30.74 32.46 30.479999999999997 32.61 30.179999999999996C32.76 29.889999999999997 32.95 29.619999999999997 33.2 29.369999999999997C34.07 28.459999999999997 35.150000000000006 27.999999999999996 36.440000000000005 27.999999999999996C37.59 27.999999999999996 38.56 28.339999999999996 39.35000000000001 29.029999999999998C40.13000000000001 29.709999999999997 40.63000000000001 30.679999999999996 40.84000000000001 31.929999999999996H38.930000000000014C38.780000000000015 31.259999999999994 38.490000000000016 30.729999999999997 38.070000000000014 30.339999999999996C37.640000000000015 29.939999999999998 37.09000000000002 29.739999999999995 36.44000000000001 29.739999999999995C35.680000000000014 29.739999999999995 35.08000000000001 29.999999999999996 34.62000000000001 30.519999999999996C34.320000000000014 30.859999999999996 34.12000000000001 31.289999999999996 34.02000000000001 31.809999999999995C33.92000000000001 32.31999999999999 33.87000000000001 33.21999999999999 33.87000000000001 34.49999999999999C33.87000000000001 35.779999999999994 33.92000000000001 36.67999999999999 34.02000000000001 37.199999999999996C34.12000000000001 37.709999999999994 34.32000000000001 38.13999999999999 34.62000000000001 38.489999999999995C35.08000000000001 39.01 35.680000000000014 39.26 36.44000000000001 39.26C37.09000000000001 39.26 37.640000000000015 39.07 38.070000000000014 38.669999999999995C38.51000000000001 38.279999999999994 38.80000000000001 37.739999999999995 38.95000000000002 37.06999999999999Z " fill="#3d5a91" fill-opacity="1" transform="matrix(1,0,0,1,-15,-13)"></path><path id="SvgjsPath1008" d="M49.97 30.91C51.16 30.96 51.99 31.28 52.47 31.86C52.949999999999996 32.45 53.19 33.339999999999996 53.19 34.54C53.19 35.71 52.94 36.6 52.449999999999996 37.21C51.959999999999994 37.81 51.129999999999995 38.14 49.97 38.19ZM48.1 38.19C46.93 38.14 46.1 37.809999999999995 45.61 37.21C45.12 36.6 44.87 35.71 44.87 34.54C44.87 33.339999999999996 45.11 32.45 45.589999999999996 31.86C46.06999999999999 31.28 46.91 30.96 48.099999999999994 30.91ZM49.97 39.82C51.74 39.74 53.03 39.25 53.839999999999996 38.36C54.65 37.46 55.059999999999995 36.16 55.059999999999995 34.45C55.059999999999995 32.790000000000006 54.65 31.520000000000003 53.809999999999995 30.660000000000004C52.98 29.800000000000004 51.699999999999996 29.320000000000004 49.97 29.240000000000002V28.000000000000004H48.1V29.240000000000002C46.36 29.32 45.08 29.8 44.25 30.660000000000004C43.42 31.520000000000003 43 32.790000000000006 43 34.45C43 36.160000000000004 43.41 37.46 44.22 38.36C45.04 39.25 46.33 39.74 48.1 39.82V41.42H49.97Z " fill="#3d5a91" fill-opacity="1" transform="matrix(1,0,0,1,-15,-13)"></path><path id="SvgjsPath1009" d="M64.9 40.79H57.00000000000001V28H64.9V29.74H58.870000000000005V33.48H64V35.199999999999996H58.87V39.05H64.89999999999999Z " fill="#3d5a91" fill-opacity="1" transform="matrix(1,0,0,1,-15,-13)"></path><path id="SvgjsPath1010" d="M74.76 31.88C74.76 31.22 74.56 30.7 74.17 30.32C73.78 29.93 73.24 29.740000000000002 72.56 29.740000000000002H69.87V34.02H72.56C73.23 34.02 73.76 33.830000000000005 74.16 33.440000000000005C74.56 33.06 74.75999999999999 32.540000000000006 74.75999999999999 31.880000000000006ZM76.63 31.88C76.63 33.03 76.25999999999999 33.96 75.53 34.68C74.8 35.4 73.84 35.76 72.68 35.76H69.87V40.79H68V28H72.68C73.84 28 74.80000000000001 28.36 75.53 29.08C76.26 29.799999999999997 76.63 30.729999999999997 76.63 31.88Z " fill="#3d5a91" fill-opacity="1" transform="matrix(1,0,0,1,-15,-13)"></path><path id="SvgjsPath1011" d="M83.21 36.57L81.32 30.89L79.38 36.57ZM86.54 40.79H84.58000000000001L83.71000000000001 38.22H78.84L77.98 40.79H76L80.52 28H82.03Z " fill="#3d5a91" fill-opacity="1" transform="matrix(1,0,0,1,-15,-13)"></path><path id="SvgjsPath1012" d="M39.26 53.35C38.87 52.97 38.35 52.77 37.68 52.77H34.87V57.050000000000004H37.68C38.35 57.050000000000004 38.87 56.86000000000001 39.26 56.480000000000004C39.64 56.11000000000001 39.83 55.580000000000005 39.83 54.910000000000004C39.83 54.25000000000001 39.64 53.730000000000004 39.26 53.35ZM41.7 54.91C41.7 56.06999999999999 41.35 57.01 40.64 57.72C39.94 58.43 38.99 58.79 37.8 58.79H33V46H40.94V47.74H34.87V51.03H37.8C38.989999999999995 51.03 39.94 51.39 40.64 52.1C41.35 52.81 41.7 53.75 41.7 54.910000000000004Z " fill="#3d5a91" fill-opacity="1" transform="matrix(1,0,0,1,-15,-13)"></path><path id="SvgjsPath1013" d="M51.9 58.79H44V46H51.9V47.74H45.87V51.480000000000004H51V53.2H45.87V57.050000000000004H51.9Z " fill="#3d5a91" fill-opacity="1" transform="matrix(1,0,0,1,-15,-13)"></path><path id="SvgjsPath1014" d="M58.35 59.01C57.230000000000004 59.01 56.27 58.66 55.49 57.98C54.7 57.3 54.21 56.339999999999996 54 55.11H55.87C56.019999999999996 55.78 56.309999999999995 56.31 56.75 56.71C57.18 57.1 57.73 57.300000000000004 58.38 57.300000000000004C59.080000000000005 57.300000000000004 59.64 57.11000000000001 60.07 56.730000000000004C60.51 56.36000000000001 60.72 55.85 60.72 55.220000000000006C60.72 54.550000000000004 60.53 54.040000000000006 60.16 53.690000000000005C59.779999999999994 53.34 59.25 53.17 58.54 53.17H56.96V51.550000000000004H58.58C59.199999999999996 51.550000000000004 59.68 51.38 60.019999999999996 51.040000000000006C60.36 50.7 60.529999999999994 50.220000000000006 60.529999999999994 49.59C60.529999999999994 48.99 60.339999999999996 48.53 59.959999999999994 48.190000000000005C59.57999999999999 47.86000000000001 59.059999999999995 47.690000000000005 58.39999999999999 47.690000000000005C57.739999999999995 47.690000000000005 57.19999999999999 47.89000000000001 56.76999999999999 48.290000000000006C56.33999999999999 48.690000000000005 56.05999999999999 49.230000000000004 55.90999999999999 49.900000000000006H54.01999999999999C54.21999999999999 48.67000000000001 54.72999999999999 47.71000000000001 55.51999999999999 47.03000000000001C56.30999999999999 46.34000000000001 57.26999999999999 46.00000000000001 58.41999999999999 46.00000000000001C59.58999999999999 46.00000000000001 60.539999999999985 46.32000000000001 61.289999999999985 46.95000000000001C62.04999999999998 47.59000000000001 62.41999999999999 48.43000000000001 62.41999999999999 49.47000000000001C62.41999999999999 50.79000000000001 61.859999999999985 51.73000000000001 60.719999999999985 52.29000000000001C61.97999999999998 52.820000000000014 62.609999999999985 53.81000000000002 62.609999999999985 55.29000000000001C62.609999999999985 56.40000000000001 62.20999999999999 57.30000000000001 61.40999999999998 57.98000000000001C60.59999999999998 58.66000000000001 59.58999999999998 59.01000000000001 58.34999999999998 59.01000000000001 " fill="#3d5a91" fill-opacity="1" transform="matrix(1,0,0,1,-15,-13)"></path><path id="SvgjsPath1015" d="M71.88 49.87C71.8 49.33 71.6 48.879999999999995 71.27 48.529999999999994C70.78999999999999 48.00999999999999 70.17999999999999 47.739999999999995 69.44 47.739999999999995C68.7 47.739999999999995 68.09 48.01 67.6 48.529999999999994C67.38 48.769999999999996 67.22 49.089999999999996 67.11 49.489999999999995C67 49.89999999999999 66.92999999999999 50.269999999999996 66.92 50.629999999999995C66.9 50.98 66.89 51.49999999999999 66.89 52.17999999999999V53.279999999999994C66.89 54.07999999999999 66.93 54.73 67.02 55.239999999999995C67.11 55.74999999999999 67.3 56.16 67.6 56.46999999999999C68.11 56.99999999999999 68.72 57.25999999999999 69.44 57.25999999999999C70.19 57.25999999999999 70.8 56.99999999999999 71.27 56.46999999999999C71.5 56.21999999999999 71.67 55.88999999999999 71.78 55.489999999999995C71.89 55.08 71.96000000000001 54.67999999999999 71.98 54.28999999999999C71.99000000000001 53.89999999999999 72 53.26999999999999 72 52.379999999999995C72 51.24999999999999 71.96 50.419999999999995 71.88 49.87ZM73.89 52.68C73.89 53.57 73.88 54.24 73.85 54.69C73.82 55.14 73.71 55.64 73.53 56.199999999999996C73.34 56.769999999999996 73.06 57.24999999999999 72.69 57.63999999999999C71.84 58.54999999999999 70.75 59.00999999999999 69.44 59.00999999999999C68.13 59.00999999999999 67.05 58.54999999999999 66.2 57.63999999999999C65.83 57.25999999999999 65.55 56.779999999999994 65.36 56.199999999999996C65.17999999999999 55.60999999999999 65.07 55.099999999999994 65.04 54.65C65.01 54.199999999999996 65 53.57 65 52.76V51.91C65 50.75 65.08 49.83 65.23 49.15C65.39 48.46 65.71000000000001 47.87 66.2 47.37C67.07000000000001 46.46 68.15 46 69.44 46C70.73 46 71.82 46.46 72.69 47.37C73.49 48.199999999999996 73.89 49.62 73.89 51.61Z " fill="#3d5a91" fill-opacity="1" transform="matrix(1,0,0,1,-15,-13)"></path><path id="SvgjsPath1016" d="M84.73 58.79H82.86V47.739999999999995H77.87V58.78999999999999H76V45.99999999999999H84.73Z " fill="#3d5a91" fill-opacity="1" transform="matrix(1,0,0,1,-15,-13)"></path><path id="SvgjsPath1017" d="M94.21 54.57L92.32 48.89L90.38 54.57ZM97.54 58.79H95.58000000000001L94.71000000000001 56.22H89.84L88.98 58.79H87L91.52 46H93.03Z " fill="#3d5a91" fill-opacity="1" transform="matrix(1,0,0,1,-15,-13)"></path><path id="SvgjsPath1018" d="M106.84 55.07C106.63000000000001 56.32 106.13000000000001 57.28 105.34 57.97C104.55 58.66 103.58 59.01 102.44 59.01C101.14999999999999 59.01 100.07 58.55 99.2 57.64C98.95 57.39 98.76 57.12 98.61 56.82C98.46 56.53 98.34 56.26 98.25 56.03C98.16 55.79 98.1 55.44 98.07 54.980000000000004C98.02999999999999 54.53 98.00999999999999 54.160000000000004 98.00999999999999 53.89C97.99999999999999 53.61 97.99999999999999 53.15 97.99999999999999 52.5C97.99999999999999 51.86 97.99999999999999 51.4 98.00999999999999 51.12C98.00999999999999 50.849999999999994 98.02999999999999 50.48 98.07 50.019999999999996C98.1 49.56999999999999 98.16 49.22 98.25 48.98C98.34 48.739999999999995 98.46 48.48 98.61 48.18C98.76 47.89 98.95 47.62 99.2 47.37C100.07000000000001 46.46 101.15 46 102.44 46C103.59 46 104.56 46.34 105.35 47.03C106.13 47.71 106.63 48.68 106.83999999999999 49.93H104.92999999999999C104.77999999999999 49.26 104.49 48.73 104.07 48.339999999999996C103.63999999999999 47.94 103.08999999999999 47.739999999999995 102.44 47.739999999999995C101.67999999999999 47.739999999999995 101.08 47.99999999999999 100.62 48.519999999999996C100.32000000000001 48.86 100.12 49.29 100.02000000000001 49.809999999999995C99.92000000000002 50.31999999999999 99.87 51.21999999999999 99.87 52.49999999999999C99.87 53.779999999999994 99.92 54.67999999999999 100.02000000000001 55.199999999999996C100.12 55.709999999999994 100.32000000000001 56.13999999999999 100.62 56.489999999999995C101.08 57.01 101.68 57.26 102.44 57.26C103.09 57.26 103.64 57.07 104.07 56.669999999999995C104.50999999999999 56.279999999999994 104.8 55.739999999999995 104.94999999999999 55.06999999999999Z " fill="#3d5a91" fill-opacity="1" transform="matrix(1,0,0,1,-15,-13)"></path><path id="SvgjsPath1019" d="M118.75 58.79H116.86V53.2H111.87V58.790000000000006H110V46.00000000000001H111.87V51.480000000000004H116.86V46H118.75Z " fill="#3d5a91" fill-opacity="1" transform="matrix(1,0,0,1,-15,-13)"></path><path id="SvgjsPath1020" d="M127.88 49.87C127.8 49.33 127.6 48.879999999999995 127.27 48.529999999999994C126.78999999999999 48.00999999999999 126.17999999999999 47.739999999999995 125.44 47.739999999999995C124.7 47.739999999999995 124.09 48.01 123.6 48.529999999999994C123.38 48.769999999999996 123.22 49.089999999999996 123.11 49.489999999999995C123 49.89999999999999 122.92999999999999 50.269999999999996 122.92 50.629999999999995C122.9 50.98 122.89 51.49999999999999 122.89 52.17999999999999V53.279999999999994C122.89 54.07999999999999 122.93 54.73 123.02 55.239999999999995C123.11 55.74999999999999 123.3 56.16 123.6 56.46999999999999C124.11 56.99999999999999 124.72 57.25999999999999 125.44 57.25999999999999C126.19 57.25999999999999 126.8 56.99999999999999 127.27 56.46999999999999C127.5 56.21999999999999 127.67 55.88999999999999 127.78 55.489999999999995C127.89 55.08 127.96000000000001 54.67999999999999 127.98 54.28999999999999C127.99000000000001 53.89999999999999 128 53.26999999999999 128 52.379999999999995C128 51.24999999999999 127.96 50.419999999999995 127.88 49.87ZM129.89 52.68C129.89 53.57 129.88 54.24 129.85 54.69C129.82 55.14 129.71 55.64 129.53 56.199999999999996C129.34 56.769999999999996 129.06 57.24999999999999 128.69 57.63999999999999C127.84 58.54999999999999 126.75 59.00999999999999 125.44 59.00999999999999C124.13 59.00999999999999 123.05 58.54999999999999 122.2 57.63999999999999C121.83 57.25999999999999 121.55 56.779999999999994 121.36 56.199999999999996C121.17999999999999 55.60999999999999 121.07 55.099999999999994 121.04 54.65C121.01 54.199999999999996 121 53.57 121 52.76V51.91C121 50.75 121.08 49.83 121.23 49.15C121.39 48.46 121.71000000000001 47.87 122.2 47.37C123.07000000000001 46.46 124.15 46 125.44 46C126.73 46 127.82 46.46 128.69 47.37C129.49 48.199999999999996 129.89 49.62 129.89 51.61Z " fill="#3d5a91" fill-opacity="1" transform="matrix(1,0,0,1,-15,-13)"></path><path id="SvgjsPath1021" d="M141.84 55.07C141.63 56.32 141.13 57.28 140.34 57.97C139.55 58.66 138.58 59.01 137.44 59.01C136.15 59.01 135.07 58.55 134.2 57.64C133.95 57.39 133.76 57.12 133.60999999999999 56.82C133.45999999999998 56.53 133.33999999999997 56.26 133.24999999999997 56.03C133.15999999999997 55.79 133.09999999999997 55.44 133.06999999999996 54.980000000000004C133.02999999999997 54.53 133.00999999999996 54.160000000000004 133.00999999999996 53.89C132.99999999999997 53.61 132.99999999999997 53.15 132.99999999999997 52.5C132.99999999999997 51.86 132.99999999999997 51.4 133.00999999999996 51.12C133.00999999999996 50.849999999999994 133.02999999999997 50.48 133.06999999999996 50.019999999999996C133.09999999999997 49.56999999999999 133.15999999999997 49.22 133.24999999999997 48.98C133.33999999999997 48.739999999999995 133.45999999999998 48.48 133.60999999999999 48.18C133.76 47.89 133.95 47.62 134.2 47.37C135.07 46.46 136.14999999999998 46 137.44 46C138.59 46 139.56 46.34 140.35 47.03C141.13 47.71 141.63 48.68 141.84 49.93H139.93C139.78 49.26 139.49 48.73 139.07 48.339999999999996C138.64 47.94 138.09 47.739999999999995 137.44 47.739999999999995C136.68 47.739999999999995 136.07999999999998 47.99999999999999 135.62 48.519999999999996C135.32 48.86 135.12 49.29 135.02 49.809999999999995C134.92000000000002 50.31999999999999 134.87 51.21999999999999 134.87 52.49999999999999C134.87 53.779999999999994 134.92000000000002 54.67999999999999 135.02 55.199999999999996C135.12 55.709999999999994 135.32000000000002 56.13999999999999 135.62 56.489999999999995C136.08 57.01 136.68 57.26 137.44 57.26C138.09 57.26 138.64 57.07 139.07 56.669999999999995C139.51 56.279999999999994 139.79999999999998 55.739999999999995 139.95 55.06999999999999Z " fill="#3d5a91" fill-opacity="1" transform="matrix(1,0,0,1,-15,-13)"></path><path id="SvgjsPath1022" d="M151.66 47.74H148.27V58.790000000000006H146.4V47.74000000000001H143V46.00000000000001H151.66Z " fill="#3d5a91" fill-opacity="1" transform="matrix(1,0,0,1,-15,-13)"></path><path id="SvgjsPath1023" d="M162.1 58.79H160.23V49.5L154.7 58.79H153V46H154.87V55.269999999999996L160.38 46H162.1Z " fill="#3d5a91" fill-opacity="1" transform="matrix(1,0,0,1,-15,-13)"></path><path id="SvgjsPath1024" d="M49.76 18.78C49.75 18.650000000000002 49.61 16.78 49.61 16.78L49.56 16.07L48.89 15.91C37.96 13.36 26.87 13.36 15.939999999999998 15.91L15.269999999999998 16.07L15.219999999999997 16.78C15.219999999999997 16.78 15.079999999999997 18.650000000000002 15.079999999999997 18.78C14.689999999999996 26.950000000000003 15.789999999999996 33.34 18.429999999999996 38.31C19.429999999999996 40.190000000000005 22.309999999999995 44.870000000000005 28.069999999999997 49.370000000000005V46.93000000000001C23.33 42.95000000000001 20.929999999999996 39.02000000000001 20.059999999999995 37.38000000000001C17.579999999999995 32.73000000000001 16.559999999999995 26.68000000000001 16.929999999999996 18.88000000000001C16.929999999999996 18.79000000000001 16.979999999999997 18.16000000000001 17.019999999999996 17.63000000000001C27.239999999999995 15.35000000000001 37.589999999999996 15.35000000000001 47.809999999999995 17.63000000000001C47.849999999999994 18.16000000000001 47.9 18.79000000000001 47.9 18.88000000000001C47.949999999999996 19.98000000000001 47.98 21.07000000000001 47.97 22.11000000000001L47.949999999999996 23.17000000000001L49.809999999999995 23.210000000000008L49.83 22.110000000000007C49.83 21.050000000000008 49.809999999999995 19.930000000000007 49.76 18.78000000000001 " fill="#2796d1" fill-opacity="1" transform="matrix(1,0,0,1,-15,-13)"></path></svg>