<svg id="SvgjsSvg1026" xmlns="http://www.w3.org/2000/svg" version="1.1" xmlns:xlink="http://www.w3.org/1999/xlink" xmlns:svgjs="http://svgjs.com/svgjs" width="80" height="80" viewBox="0 0 80 80"><title>bg</title><desc>Created with Avocode.</desc><defs id="SvgjsDefs1027"><filter id="SvgjsFilter1029" width="200%" height="200%" x="-50%" y="-50%"><feMorphology id="SvgjsFeMorphology1030" operator="dilate" radius="0" result="SvgjsFeMorphology1030Out" in="SourceGraphic"></feMorphology><feOffset id="SvgjsFeOffset1031" dx="0" dy="2" result="SvgjsFeOffset1031Out" in="SvgjsFeMorphology1030Out"></feOffset><feGaussianBlur id="SvgjsFeGaussianBlur1032" stdDeviation="6 " result="SvgjsFeGaussianBlur1032Out" in="SvgjsFeOffset1031Out"></feGaussianBlur><feComposite id="SvgjsFeComposite1033" in="SvgjsFeGaussianBlur1032Out" in2="SourceAlpha" operator="out" result="SvgjsFeComposite1033Out"></feComposite></filter></defs><path id="SvgjsPath1028" d="M872 458C872 442.53603 884.53603 430 900 430C915.46397 430 928 442.53603 928 458C928 473.46397 915.46397 486 900 486C884.53603 486 872 473.46397 872 458Z " fill="#000000" fill-opacity="0.08" filter="url(#SvgjsFilter1029)" transform="matrix(1,0,0,1,-860,-420)"></path><path id="SvgjsPath1034" d="M872 458C872 442.53603 884.53603 430 900 430C915.46397 430 928 442.53603 928 458C928 473.46397 915.46397 486 900 486C884.53603 486 872 473.46397 872 458Z " fill="#ffffff" fill-opacity="1" transform="matrix(1,0,0,1,-860,-420)"></path><path id="SvgjsPath1035" d="M886 449C886 448.44772 886.44772 448 887 448H913C913.55228 448 914 448.44772 914 449V467C914 467.55228 913.55228 468 913 468H887C886.44772 468 886 467.55228 886 467Z " fill-opacity="0" fill="#ffffff" stroke-dashoffset="0" stroke-linejoin="round" stroke-linecap="round" stroke-opacity="1" stroke="#2796d1" stroke-miterlimit="50" stroke-width="2" transform="matrix(1,0,0,1,-860,-420)"></path><path id="SvgjsPath1036" d="M886 458L900 449L914 458 " fill-opacity="0" fill="#ffffff" stroke-dashoffset="0" stroke-linejoin="round" stroke-linecap="round" stroke-opacity="1" stroke="#2796d1" stroke-miterlimit="50" stroke-width="2" transform="matrix(1,0,0,1,-860,-420)"></path></svg>