<svg id="SvgjsSvg1037" xmlns="http://www.w3.org/2000/svg" version="1.1" xmlns:xlink="http://www.w3.org/1999/xlink" xmlns:svgjs="http://svgjs.com/svgjs" width="19.998629057434755" height="22.30495118917497" viewBox="0 0 19.998629057434755 22.30495118917497"><title>Oval</title><desc>Created with Avocode.</desc><defs id="SvgjsDefs1038"></defs><path id="SvgjsPath1039" d="M1123 320C1123 320 1130.92 313.13 1131 308C1131.08 302.87 1127.42 300 1123 300C1118.58 300 1115.03 302.51 1115 308C1114.97 313.49 1123 320 1123 320Z " fill-opacity="0" fill="#ffffff" stroke-dashoffset="0" stroke-linejoin="miter" stroke-linecap="butt" stroke-opacity="1" stroke="#2796d1" stroke-miterlimit="50" stroke-width="2" transform="matrix(1,0,0,1,-1113.0006854712826,-298.8475244054125)"></path><path id="SvgjsPath1040" d="M1120 308C1120 306.34315 1121.34315 305 1123 305C1124.65685 305 1126 306.34315 1126 308C1126 309.65685 1124.65685 311 1123 311C1121.34315 311 1120 309.65685 1120 308Z " fill-opacity="0" fill="#ffffff" stroke-dashoffset="0" stroke-linejoin="miter" stroke-linecap="butt" stroke-opacity="1" stroke="#2796d1" stroke-miterlimit="50" stroke-width="2" transform="matrix(1,0,0,1,-1113.0006854712826,-298.8475244054125)"></path></svg>