<?xml version="1.0" encoding="UTF-8"?>
<svg width="191px" height="35px" viewBox="0 0 191 35" version="1.1" xmlns="http://www.w3.org/2000/svg" xmlns:xlink="http://www.w3.org/1999/xlink">
    <!-- Generator: Sketch 42 (36781) - http://www.bohemiancoding.com/sketch -->
    <title>next-team</title>
    <desc>Created with Sketch.</desc>
    <defs></defs>
    <g id="main" stroke="none" stroke-width="1" fill="none" fill-rule="evenodd">
        <g id="main-1280" transform="translate(-1074.000000, -6082.000000)">
            <g id="Подвал" transform="translate(0.000000, 5647.000000)">
                <g id="06">
                    <g transform="translate(1074.000000, 30.000000)">
                        <g id="next-team" transform="translate(0.000000, 405.000000)">
                            <path d="M7.824,4.032 L4.212,12.446 C3.76399776,13.4820052 3.11067096,14 2.252,14 L1.384,14 L1.384,13.048 L2.014,13.048 C2.35000168,13.048 2.61599902,12.9710008 2.812,12.817 C3.00800098,12.6629992 3.18066592,12.4086684 3.33,12.054 L3.736,11.116 L0.446,4.032 L1.58,4.032 L4.268,9.926 L6.69,4.032 L7.824,4.032 Z M14.558,14 L13.55,14 L13.55,7.98 L10.218,7.98 L10.218,14 L9.224,14 L9.224,7.112 L14.558,7.112 L14.558,14 Z M21.992,14 L20.984,14 L20.984,13.342 C20.6853318,13.6220014 20.4240011,13.8086662 20.2,13.902 C19.9199986,14.0233339 19.5140027,14.084 18.982,14.084 C18.1886627,14.084 17.5820021,13.9113351 17.162,13.566 C16.7419979,13.2206649 16.532,12.71667 16.532,12.054 C16.532,11.4286635 16.7419979,10.9410018 17.162,10.591 C17.5820021,10.2409983 18.1653296,10.066 18.912,10.066 L20.984,10.066 L20.984,9.408 C20.984,8.88533072 20.8393348,8.50266788 20.55,8.26 C20.2606652,8.01733212 19.8033365,7.896 19.178,7.896 C18.7486645,7.896 18.3940014,7.9659993 18.114,8.106 C17.9086656,8.1993338 17.6986677,8.39066522 17.484,8.68 L16.798,8.05 C17.1153349,7.68599818 17.4046654,7.43866732 17.666,7.308 C18.0393352,7.1213324 18.5526634,7.028 19.206,7.028 C21.0633426,7.028 21.992,7.79332568 21.992,9.324 L21.992,14 Z M20.984,11.564 L20.984,10.822 L19.052,10.822 C18.0253282,10.822 17.512,11.2279959 17.512,12.04 C17.512,12.4506687 17.6449987,12.7493324 17.911,12.936 C18.1770013,13.1226676 18.5993304,13.216 19.178,13.216 C19.8220032,13.216 20.2839986,13.087668 20.564,12.831 C20.8440014,12.5743321 20.984,12.1520029 20.984,11.564 Z M25.506,14 L24.498,14 L24.498,7.112 L25.506,7.112 L25.506,10.416 L28.544,7.112 L29.79,7.112 L26.696,10.36 L30.07,14 L28.768,14 L25.506,10.444 L25.506,14 Z M36.678,10.514 C36.678,11.8020064 36.3980028,12.7306638 35.838,13.3 C35.3153307,13.8226693 34.6573373,14.084 33.864,14.084 C33.0706627,14.084 32.4126693,13.8226693 31.89,13.3 C31.3299972,12.7306638 31.05,11.8160063 31.05,10.556 C31.05,9.2959937 31.3299972,8.38133618 31.89,7.812 C32.4126693,7.28933072 33.0706627,7.028 33.864,7.028 C34.6573373,7.028 35.3153307,7.28933072 35.838,7.812 C36.3980028,8.3720028 36.678,9.27266046 36.678,10.514 Z M35.67,10.598 C35.67,10.0099971 35.6303337,9.5526683 35.551,9.226 C35.4716663,8.8993317 35.3293344,8.63333436 35.124,8.428 C34.8066651,8.09199832 34.3866693,7.924 33.864,7.924 C33.3506641,7.924 32.9353349,8.09199832 32.618,8.428 C32.2446648,8.8013352 32.058,9.51066144 32.058,10.556 C32.058,11.5920052 32.2446648,12.3013314 32.618,12.684 C32.9353349,13.0200017 33.3506641,13.188 33.864,13.188 C34.3866693,13.188 34.8066651,13.0200017 35.124,12.684 C35.4880018,12.3106648 35.67,11.6153384 35.67,10.598 Z M44.182,12.096 C44.182,12.6840029 44.0000018,13.1483316 43.636,13.489 C43.2719982,13.8296684 42.7680032,14 42.124,14 L38.848,14 L38.848,7.112 L42.04,7.112 C42.6466697,7.112 43.1366648,7.27766501 43.51,7.609 C43.8833352,7.94033499 44.07,8.37666396 44.07,8.918 C44.07,9.6646704 43.7060036,10.1686654 42.978,10.43 C43.7806707,10.7286682 44.182,11.2839959 44.182,12.096 Z M43.076,9.002 C43.076,8.32066326 42.6700041,7.98 41.858,7.98 L39.842,7.98 L39.842,10.038 L41.858,10.038 C42.6700041,10.038 43.076,9.69267012 43.076,9.002 Z M43.188,11.998 C43.188,11.6526649 43.0783344,11.3773344 42.859,11.172 C42.6396656,10.9666656 42.334002,10.864 41.942,10.864 L39.842,10.864 L39.842,13.132 L41.942,13.132 C42.334002,13.132 42.6396656,13.0293344 42.859,12.824 C43.0783344,12.6186656 43.188,12.3433351 43.188,11.998 Z M51.294,14 L50.286,14 L50.286,13.342 C49.9873318,13.6220014 49.7260011,13.8086662 49.502,13.902 C49.2219986,14.0233339 48.8160027,14.084 48.284,14.084 C47.4906627,14.084 46.8840021,13.9113351 46.464,13.566 C46.0439979,13.2206649 45.834,12.71667 45.834,12.054 C45.834,11.4286635 46.0439979,10.9410018 46.464,10.591 C46.8840021,10.2409983 47.4673296,10.066 48.214,10.066 L50.286,10.066 L50.286,9.408 C50.286,8.88533072 50.1413348,8.50266788 49.852,8.26 C49.5626652,8.01733212 49.1053365,7.896 48.48,7.896 C48.0506645,7.896 47.6960014,7.9659993 47.416,8.106 C47.2106656,8.1993338 47.0006677,8.39066522 46.786,8.68 L46.1,8.05 C46.4173349,7.68599818 46.7066654,7.43866732 46.968,7.308 C47.3413352,7.1213324 47.8546634,7.028 48.508,7.028 C50.3653426,7.028 51.294,7.79332568 51.294,9.324 L51.294,14 Z M50.286,11.564 L50.286,10.822 L48.354,10.822 C47.3273282,10.822 46.814,11.2279959 46.814,12.04 C46.814,12.4506687 46.9469987,12.7493324 47.213,12.936 C47.4790013,13.1226676 47.9013304,13.216 48.48,13.216 C49.1240032,13.216 49.5859986,13.087668 49.866,12.831 C50.1460014,12.5743321 50.286,12.1520029 50.286,11.564 Z M59.092,14 L58.084,14 L58.084,10.878 L54.752,10.878 L54.752,14 L53.758,14 L53.758,7.112 L54.752,7.112 L54.752,10.01 L58.084,10.01 L58.084,7.112 L59.092,7.112 L59.092,14 Z M66.876,10.514 C66.876,11.8020064 66.5960028,12.7306638 66.036,13.3 C65.5133307,13.8226693 64.8553373,14.084 64.062,14.084 C63.2686627,14.084 62.6106693,13.8226693 62.088,13.3 C61.5279972,12.7306638 61.248,11.8160063 61.248,10.556 C61.248,9.2959937 61.5279972,8.38133618 62.088,7.812 C62.6106693,7.28933072 63.2686627,7.028 64.062,7.028 C64.8553373,7.028 65.5133307,7.28933072 66.036,7.812 C66.5960028,8.3720028 66.876,9.27266046 66.876,10.514 Z M65.868,10.598 C65.868,10.0099971 65.8283337,9.5526683 65.749,9.226 C65.6696663,8.8993317 65.5273344,8.63333436 65.322,8.428 C65.0046651,8.09199832 64.5846693,7.924 64.062,7.924 C63.5486641,7.924 63.1333349,8.09199832 62.816,8.428 C62.4426648,8.8013352 62.256,9.51066144 62.256,10.556 C62.256,11.5920052 62.4426648,12.3013314 62.816,12.684 C63.1333349,13.0200017 63.5486641,13.188 64.062,13.188 C64.5846693,13.188 65.0046651,13.0200017 65.322,12.684 C65.6860018,12.3106648 65.868,11.6153384 65.868,10.598 Z M80.064,14 L79.056,14 L73.764,6.006 L73.764,14 L72.7,14 L72.7,4.032 L73.708,4.032 L79,11.998 L79,4.032 L80.064,4.032 L80.064,14 Z M88.044,10.822 L83.396,10.822 C83.396,11.5780038 83.5709982,12.1636646 83.921,12.579 C84.2710017,12.9943354 84.7726634,13.202 85.426,13.202 C85.818002,13.202 86.1469987,13.1413339 86.413,13.02 C86.6790013,12.8986661 86.9519986,12.6980014 87.232,12.418 L87.918,13.02 C87.5446648,13.3933352 87.1713352,13.6639992 86.798,13.832 C86.4246648,14.0000008 85.9580028,14.084 85.398,14.084 C84.4553286,14.084 83.7180027,13.7923363 83.186,13.209 C82.6539973,12.6256638 82.388,11.7413393 82.388,10.556 C82.388,9.44532778 82.6399975,8.57966977 83.144,7.959 C83.6480025,7.33833023 84.3386623,7.028 85.216,7.028 C86.1026711,7.028 86.7956642,7.32666368 87.295,7.924 C87.7943358,8.52133632 88.044,9.3333282 88.044,10.36 L88.044,10.822 Z M87.036,10.066 C87.0079999,9.58066424 86.9380006,9.1980014 86.826,8.918 C86.6953327,8.60066508 86.4853348,8.3486676 86.196,8.162 C85.9066652,7.9753324 85.5800018,7.882 85.216,7.882 C84.8519982,7.882 84.5253348,7.9753324 84.236,8.162 C83.9466652,8.3486676 83.7366673,8.60066508 83.606,8.918 C83.4939994,9.1980014 83.4240001,9.58066424 83.396,10.066 L87.036,10.066 Z M95.156,14 L93.938,14 L92.286,11.326 L90.606,14 L89.388,14 L91.726,10.486 L89.486,7.112 L90.704,7.112 L92.286,9.66 L93.84,7.112 L95.058,7.112 L92.818,10.486 L95.156,14 Z M99.524,14 L98.81,14 C98.2406638,14 97.8043348,13.8273351 97.501,13.482 C97.1976651,13.1366649 97.046,12.693336 97.046,12.152 L97.046,7.924 L96.178,7.924 L96.178,7.154 L97.046,7.154 L97.046,4.998 L98.054,4.998 L98.054,7.154 L99.524,7.154 L99.524,7.924 L98.054,7.924 L98.054,12.124 C98.054,12.7960034 98.3666635,13.132 98.992,13.132 L99.524,13.132 L99.524,14 Z M105.166,10.696 L101.33,10.696 L101.33,9.758 L105.166,9.758 L105.166,10.696 Z M110.136,14 L109.422,14 C108.852664,14 108.416335,13.8273351 108.113,13.482 C107.809665,13.1366649 107.658,12.693336 107.658,12.152 L107.658,7.924 L106.79,7.924 L106.79,7.154 L107.658,7.154 L107.658,4.998 L108.666,4.998 L108.666,7.154 L110.136,7.154 L110.136,7.924 L108.666,7.924 L108.666,12.124 C108.666,12.7960034 108.978664,13.132 109.604,13.132 L110.136,13.132 L110.136,14 Z M117.416,10.822 L112.768,10.822 C112.768,11.5780038 112.942998,12.1636646 113.293,12.579 C113.643002,12.9943354 114.144663,13.202 114.798,13.202 C115.190002,13.202 115.518999,13.1413339 115.785,13.02 C116.051001,12.8986661 116.323999,12.6980014 116.604,12.418 L117.29,13.02 C116.916665,13.3933352 116.543335,13.6639992 116.17,13.832 C115.796665,14.0000008 115.330003,14.084 114.77,14.084 C113.827329,14.084 113.090003,13.7923363 112.558,13.209 C112.025997,12.6256638 111.76,11.7413393 111.76,10.556 C111.76,9.44532778 112.011997,8.57966977 112.516,7.959 C113.020003,7.33833023 113.710662,7.028 114.588,7.028 C115.474671,7.028 116.167664,7.32666368 116.667,7.924 C117.166336,8.52133632 117.416,9.3333282 117.416,10.36 L117.416,10.822 Z M116.408,10.066 C116.38,9.58066424 116.310001,9.1980014 116.198,8.918 C116.067333,8.60066508 115.857335,8.3486676 115.568,8.162 C115.278665,7.9753324 114.952002,7.882 114.588,7.882 C114.223998,7.882 113.897335,7.9753324 113.608,8.162 C113.318665,8.3486676 113.108667,8.60066508 112.978,8.918 C112.865999,9.1980014 112.796,9.58066424 112.768,10.066 L116.408,10.066 Z M124.472,14 L123.464,14 L123.464,13.342 C123.183999,13.6220014 122.899335,13.8156661 122.61,13.923 C122.320665,14.0303339 121.942669,14.084 121.476,14.084 C120.589329,14.084 119.940669,13.8740021 119.53,13.454 C119.184665,13.1086649 119.012,12.6420029 119.012,12.054 C119.012,11.4379969 119.219665,10.9526684 119.635,10.598 C120.050335,10.2433316 120.635996,10.066 121.392,10.066 L123.464,10.066 L123.464,9.408 C123.464,8.8946641 123.324001,8.51433457 123.044,8.267 C122.763999,8.01966543 122.316003,7.896 121.7,7.896 C121.261331,7.896 120.913668,7.95433275 120.657,8.071 C120.400332,8.18766725 120.169334,8.39066522 119.964,8.68 L119.278,8.05 C119.576668,7.66733142 119.912665,7.40133408 120.286,7.252 C120.659335,7.10266592 121.13533,7.028 121.714,7.028 C123.552676,7.028 124.472,7.79332568 124.472,9.324 L124.472,14 Z M123.464,11.564 L123.464,10.822 L121.532,10.822 C120.505328,10.822 119.992,11.2279959 119.992,12.04 C119.992,12.8240039 120.519328,13.216 121.574,13.216 C122.283337,13.216 122.796665,13.0620015 123.114,12.754 C123.347334,12.5299989 123.464,12.1333362 123.464,11.564 Z M136.778,14 L135.77,14 L135.77,9.758 C135.77,9.16066368 135.620668,8.70566823 135.322,8.393 C135.023332,8.08033177 134.608003,7.924 134.076,7.924 C133.562664,7.924 133.147335,8.07799846 132.83,8.386 C132.512665,8.69400154 132.354,9.11399734 132.354,9.646 L132.354,14 L131.346,14 L131.346,9.758 C131.346,9.16066368 131.196668,8.70566823 130.898,8.393 C130.599332,8.08033177 130.184003,7.924 129.652,7.924 C129.119997,7.924 128.700002,8.08266508 128.392,8.4 C128.083998,8.71733492 127.93,9.16999706 127.93,9.758 L127.93,14 L126.922,14 L126.922,7.112 L127.93,7.112 L127.93,7.868 C128.415336,7.3079972 129.063996,7.028 129.876,7.028 C130.856005,7.028 131.560665,7.41066284 131.99,8.176 C132.531336,7.41066284 133.287328,7.028 134.258,7.028 C134.995337,7.028 135.587998,7.24266452 136.036,7.672 C136.530669,8.14800238 136.778,8.78732932 136.778,9.59 L136.778,14 Z M148.062,12.096 C148.062,12.6840029 147.880002,13.1483316 147.516,13.489 C147.151998,13.8296684 146.648003,14 146.004,14 L142.728,14 L142.728,7.112 L145.92,7.112 C146.52667,7.112 147.016665,7.27766501 147.39,7.609 C147.763335,7.94033499 147.95,8.37666396 147.95,8.918 C147.95,9.6646704 147.586004,10.1686654 146.858,10.43 C147.660671,10.7286682 148.062,11.2839959 148.062,12.096 Z M146.956,9.002 C146.956,8.32066326 146.550004,7.98 145.738,7.98 L143.722,7.98 L143.722,10.038 L145.738,10.038 C146.550004,10.038 146.956,9.69267012 146.956,9.002 Z M147.068,11.998 C147.068,11.6526649 146.958334,11.3773344 146.739,11.172 C146.519666,10.9666656 146.214002,10.864 145.822,10.864 L143.722,10.864 L143.722,13.132 L145.822,13.132 C146.214002,13.132 146.519666,13.0293344 146.739,12.824 C146.958334,12.6186656 147.068,12.3433351 147.068,11.998 Z M95.436,32 L89.934,32 L89.934,31.104 L93.868,26.106 C94.2413352,25.6206642 94.428,25.1306691 94.428,24.636 C94.428,24.094664 94.2740015,23.6606683 93.966,23.334 C93.6579985,23.0073317 93.233336,22.844 92.692,22.844 C92.1879975,22.844 91.7726683,22.9933318 91.446,23.292 C91.1193317,23.5906682 90.956,24.0433303 90.956,24.65 L89.948,24.65 C89.948,23.8566627 90.1999975,23.2080025 90.704,22.704 C91.2080025,22.1999975 91.8706626,21.948 92.692,21.948 C93.5133374,21.948 94.1759975,22.1929976 94.68,22.683 C95.1840025,23.1730025 95.436,23.8239959 95.436,24.636 C95.436,25.0186686 95.3753339,25.3593318 95.254,25.658 C95.1326661,25.9566682 94.9273348,26.2879982 94.638,26.652 L91.152,31.104 L95.436,31.104 L95.436,32 Z M102.674,29.34 C102.674,30.1520041 102.415003,30.8123308 101.897,31.321 C101.378997,31.8296692 100.728004,32.084 99.944,32.084 C99.1599961,32.084 98.5090026,31.8296692 97.991,31.321 C97.4729974,30.8123308 97.214,30.1520041 97.214,29.34 L97.214,24.692 C97.214,23.8799959 97.4729974,23.2196692 97.991,22.711 C98.5090026,22.2023308 99.1599961,21.948 99.944,21.948 C100.728004,21.948 101.378997,22.2023308 101.897,22.711 C102.415003,23.2196692 102.674,23.8799959 102.674,24.692 L102.674,29.34 Z M101.666,29.284 L101.666,24.748 C101.666,24.1879972 101.514335,23.7306684 101.211,23.376 C100.907665,23.0213316 100.485336,22.844 99.944,22.844 C99.402664,22.844 98.9803348,23.0213316 98.677,23.376 C98.3736651,23.7306684 98.222,24.1879972 98.222,24.748 L98.222,29.284 C98.222,29.8440028 98.3736651,30.3013316 98.677,30.656 C98.9803348,31.0106684 99.402664,31.188 99.944,31.188 C100.485336,31.188 100.907665,31.0106684 101.211,30.656 C101.514335,30.3013316 101.666,29.8440028 101.666,29.284 Z M108.218,32 L107.21,32 L107.21,23.152 L105.348,24.79 L105.348,23.642 L107.21,22.032 L108.218,22.032 L108.218,32 Z M117.5,22.928 L114.042,32 L112.978,32 L116.436,22.928 L112.964,22.928 L112.964,24.496 L111.97,24.496 L111.97,22.032 L117.5,22.032 L117.5,22.928 Z M127.384,25.98 L124.024,25.98 L124.024,32 L123.016,32 L123.016,25.112 L127.384,25.112 L127.384,25.98 Z M134.062,28.514 C134.062,29.8020064 133.782003,30.7306638 133.222,31.3 C132.699331,31.8226693 132.041337,32.084 131.248,32.084 C130.454663,32.084 129.796669,31.8226693 129.274,31.3 C128.713997,30.7306638 128.434,29.8160063 128.434,28.556 C128.434,27.2959937 128.713997,26.3813362 129.274,25.812 C129.796669,25.2893307 130.454663,25.028 131.248,25.028 C132.041337,25.028 132.699331,25.2893307 133.222,25.812 C133.782003,26.3720028 134.062,27.2726605 134.062,28.514 Z M133.054,28.598 C133.054,28.0099971 133.014334,27.5526683 132.935,27.226 C132.855666,26.8993317 132.713334,26.6333344 132.508,26.428 C132.190665,26.0919983 131.770669,25.924 131.248,25.924 C130.734664,25.924 130.319335,26.0919983 130.002,26.428 C129.628665,26.8013352 129.442,27.5106614 129.442,28.556 C129.442,29.5920052 129.628665,30.3013314 130.002,30.684 C130.319335,31.0200017 130.734664,31.188 131.248,31.188 C131.770669,31.188 132.190665,31.0200017 132.508,30.684 C132.872002,30.3106648 133.054,29.6153384 133.054,28.598 Z M142.28,34.058 L141.3,34.058 L141.3,32 L136.176,32 L136.176,34.058 L135.21,34.058 L135.21,31.132 L136.022,31.132 C136.330002,30.4413299 136.558666,29.7693366 136.708,29.116 C136.857334,28.4626634 136.932,27.5666724 136.932,26.428 L136.932,25.112 L141.258,25.112 L141.258,31.132 L142.28,31.132 L142.28,34.058 Z M140.25,31.132 L140.25,25.98 L137.898,25.98 L137.898,27.282 C137.888667,28.682007 137.627336,29.9653275 137.114,31.132 L140.25,31.132 Z M148.846,25.112 L145.71,33.666 C145.392665,34.524671 144.781338,34.954 143.876,34.954 L143.442,34.954 L143.442,34.058 L143.75,34.058 C144.076668,34.058 144.316999,34.0020006 144.471,33.89 C144.625001,33.7779994 144.762666,33.5493351 144.884,33.204 L145.374,31.86 L142.896,25.112 L143.988,25.112 L145.878,30.642 L147.754,25.112 L148.846,25.112 Z" id="Упаковано-Next-team" fill="#676767"></path>
                            <path d="M179.986207,31.1350784 L179.880174,30.8904774 C179.929021,30.9648169 179.964762,31.0463506 179.986207,31.1350784 L179.986207,31.1350784 Z M174.83586,30.9096618 L174.739358,31.1470687 C174.75842,31.0619379 174.790587,30.9816033 174.83586,30.9096618 L174.83586,30.9096618 Z M176.678929,30.535566 L177.332998,28.9360669 L178.022808,30.535566 L176.678929,30.535566 Z M180.558071,32.4611999 L179.986207,31.1350784 L179.880174,30.8904774 L178.031148,26.6075606 C177.75713,25.9708784 176.851679,25.9792716 176.589575,26.6207499 L174.83586,30.9096618 L174.739358,31.1470687 L174.196087,32.4755882 C174.032868,32.8760625 174.223489,33.332891 174.623793,33.4959584 C175.024098,33.6602248 175.480398,33.4683808 175.643617,33.0679065 L176.039156,32.1014925 L178.698322,32.1014925 L179.121263,33.0822948 C179.292822,33.479172 179.753888,33.6614238 180.149427,33.4899633 C180.546157,33.3185027 180.72963,32.8580772 180.558071,32.4611999 L180.558071,32.4611999 Z M180.368641,5.30328694 C180.032671,7.99389872 177.736877,10.035838 175.001462,10.035838 C172.267238,10.035838 169.971444,7.99389872 169.634282,5.30208792 C169.606881,5.07787027 169.592584,4.85005554 169.592584,4.62343985 C169.592584,3.76134097 169.792736,2.93041675 170.172787,2.18102621 C170.929315,1.98318711 171.698949,1.83210998 172.478113,1.73019287 C171.672738,2.43402046 171.164018,3.46877891 171.164018,4.62343985 L171.164018,4.66420669 C171.185463,6.76609727 172.896288,8.46391646 175.002653,8.46391646 C177.107826,8.46391646 178.817461,6.76609727 178.840097,4.66420669 L178.840097,4.62343985 C178.840097,3.46877891 178.331377,2.43402046 177.526002,1.73019287 C178.305166,1.83210998 179.074799,1.98318711 179.831327,2.18102621 C180.210187,2.93041675 180.411531,3.76134097 180.411531,4.62343985 C180.411531,4.85125457 180.397234,5.07787027 180.368641,5.30328694 L180.368641,5.30328694 Z M190.815876,7.36920677 C189.746015,6.09584237 188.524847,4.95437071 187.180968,3.97236935 C185.188976,2.51555415 182.95275,1.42564055 180.568793,0.758982734 L180.567602,0.758982734 C178.770997,0.256591319 176.902909,0 175.001462,0 C173.101206,0 171.233118,0.256591319 169.435322,0.758982734 L169.43413,0.758982734 C167.050173,1.42564055 164.812756,2.51555415 162.821956,3.97236935 C161.479268,4.95437071 160.2581,6.09584237 159.187047,7.36920677 C158.909455,7.70013763 158.952345,8.19413587 159.282358,8.47230964 C159.613562,8.7504834 160.106795,8.70731851 160.384387,8.37638765 C161.374426,7.20014426 162.503857,6.14380336 163.745277,5.23614155 C165.138004,4.21816945 166.6594,3.39324034 168.272532,2.78533474 C168.111695,3.37765302 168.028298,3.9939518 168.028298,4.62343985 C168.028298,4.91480289 168.046169,5.20736495 168.081911,5.49632994 C168.516765,8.96870593 171.474969,11.6017645 175.001462,11.6017645 C178.527955,11.6017645 181.487349,8.96870593 181.921013,5.49752897 C181.956754,5.20856398 181.975816,4.91600191 181.975816,4.62343985 C181.975816,3.99515082 181.89242,3.37765302 181.730392,2.78533474 C183.343524,3.39204132 184.86492,4.21697042 186.257646,5.23614155 C187.500258,6.14500239 188.629689,7.20014426 189.619728,8.37758667 C189.89732,8.70851753 190.390553,8.7504834 190.721757,8.47230964 C191.05177,8.19413587 191.09466,7.70013763 190.815876,7.36920677 L190.815876,7.36920677 Z M185.62383,7.09822715 C185.267607,6.8548251 184.780331,6.94834904 184.537289,7.30565845 C182.404714,10.4423075 178.865116,12.3583492 175.001462,12.3583492 C171.137807,12.3583492 167.599401,10.4423075 165.465634,7.30565845 C165.222592,6.94834904 164.736508,6.85602413 164.379093,7.09942618 C164.021678,7.3416292 163.929942,7.82843329 164.172984,8.1857427 C166.595065,11.7468465 170.61479,13.9242757 175.001462,13.9242757 C179.389324,13.9242757 183.40905,11.7468465 185.831131,8.1857427 C186.074173,7.82843329 185.981245,7.3416292 185.62383,7.09822715 L185.62383,7.09822715 Z M164.962871,16.3139322 C164.530399,16.3139322 164.180132,16.6640475 164.180132,17.0968954 L164.180132,20.643611 L161.095642,16.6208826 C160.640534,16.0273653 159.692193,16.3487039 159.692193,17.0968954 L159.692193,22.9517338 C159.692193,23.3833828 160.04246,23.733498 160.474932,23.733498 C160.907404,23.733498 161.256479,23.3833828 161.256479,22.9517338 L161.256479,19.4026202 L164.34216,23.4277467 C164.797268,24.021264 165.744418,23.6987263 165.744418,22.9517338 L165.744418,17.0968954 C165.744418,16.6640475 165.394151,16.3139322 164.962871,16.3139322 L164.962871,16.3139322 Z M188.746445,26.4852601 L186.480435,29.9168692 L184.271611,26.4924542 C183.84867,25.8365876 182.832421,26.1363438 182.832421,26.916909 L182.832421,32.7717474 C182.832421,33.2045954 183.182687,33.5547106 183.613968,33.5547106 C184.04644,33.5547106 184.396706,33.2045954 184.396706,32.7717474 L184.396706,29.5727491 L185.815643,31.7729597 C186.121828,32.2477735 186.814022,32.2513706 187.126164,31.7801538 L188.616584,29.52239 L188.616584,32.7717474 C188.616584,33.2045954 188.96685,33.5547106 189.398131,33.5547106 C189.830603,33.5547106 190.180869,33.2045954 190.180869,32.7717474 L190.180869,26.916909 C190.180869,26.1411399 189.17296,25.8377866 188.746445,26.4852601 L188.746445,26.4852601 Z M171.202142,31.9887841 L168.321379,31.9887841 L168.321379,30.6254929 L170.337198,30.6254929 C170.76967,30.6254929 171.119937,30.2741786 171.119937,29.8425297 C171.119937,29.4096817 170.76967,29.0595664 170.337198,29.0595664 L168.321379,29.0595664 L168.321379,27.6998722 L171.202142,27.6998722 C171.633423,27.6998722 171.983689,27.349757 171.983689,26.916909 C171.983689,26.4852601 171.633423,26.1351448 171.202142,26.1351448 L167.539832,26.1351448 C167.10736,26.1351448 166.757093,26.4852601 166.757093,26.916909 L166.757093,32.7717474 C166.757093,33.2045954 167.10736,33.5547106 167.539832,33.5547106 L171.202142,33.5547106 C171.633423,33.5547106 171.983689,33.2045954 171.983689,32.7717474 C171.983689,32.3400984 171.633423,31.9887841 171.202142,31.9887841 L171.202142,31.9887841 Z M163.835823,26.1087663 L159.781547,26.1087663 C159.350267,26.1087663 159,26.4588815 159,26.8905305 C159,27.3233784 159.350267,27.6734937 159.781547,27.6734937 L160.988418,27.6734937 L160.988418,32.7717474 C160.988418,33.2045954 161.338684,33.5547106 161.771156,33.5547106 C162.202437,33.5547106 162.552703,33.2045954 162.552703,32.7717474 L162.552703,27.6734937 L163.835823,27.6734937 C164.267103,27.6734937 164.61737,27.3233784 164.61737,26.8905305 C164.61737,26.4588815 164.267103,26.1087663 163.835823,26.1087663 L163.835823,26.1087663 Z M173.030915,22.1687706 L170.151343,22.1687706 L170.151343,20.8306588 L172.165971,20.8306588 C172.598443,20.8306588 172.948709,20.4805436 172.948709,20.0488946 C172.948709,19.6160467 172.598443,19.2659314 172.165971,19.2659314 L170.151343,19.2659314 L170.151343,17.8798587 L173.030915,17.8798587 C173.462195,17.8798587 173.812462,17.5285444 173.812462,17.0968954 C173.812462,16.6640475 173.462195,16.3139322 173.030915,16.3139322 L169.368604,16.3139322 C168.937324,16.3139322 168.587057,16.6640475 168.587057,17.0968954 L168.587057,22.9517338 C168.587057,23.3833828 168.937324,23.733498 169.368604,23.733498 L173.030915,23.733498 C173.462195,23.733498 173.812462,23.3833828 173.812462,22.9517338 C173.812462,22.5188858 173.462195,22.1687706 173.030915,22.1687706 L173.030915,22.1687706 Z M180.469909,20.0237151 L182.237921,17.5525249 C182.489302,17.2012106 182.408288,16.7120085 182.058022,16.4602132 C181.706564,16.208418 181.218097,16.2899517 180.966715,16.641266 L179.508463,18.6796082 L178.049019,16.641266 C177.797637,16.2899517 177.30917,16.208418 176.958904,16.4602132 C176.607446,16.7120085 176.526432,17.2012106 176.777813,17.5525249 L178.545825,20.0237151 L176.777813,22.4961044 C176.526432,22.8474186 176.607446,23.3354218 176.957712,23.587217 C177.30917,23.8390122 177.797637,23.7586775 178.049019,23.4073632 L179.508463,21.367822 L180.966715,23.4073632 C181.218097,23.7586775 181.706564,23.8390122 182.058022,23.587217 C182.408288,23.3354218 182.489302,22.8474186 182.237921,22.4961044 L180.469909,20.0237151 Z M190.136788,16.3139322 L186.083704,16.3139322 C185.652424,16.3139322 185.302157,16.6640475 185.302157,17.0968954 C185.302157,17.5285444 185.652424,17.8798587 186.083704,17.8798587 L187.357292,17.8798587 L187.357292,22.9517338 C187.357292,23.3833828 187.707559,23.733498 188.140031,23.733498 C188.572503,23.733498 188.921578,23.3833828 188.921578,22.9517338 L188.921578,17.8798587 L190.136788,17.8798587 C190.56926,17.8798587 190.919527,17.5285444 190.919527,17.0968954 C190.919527,16.6640475 190.56926,16.3139322 190.136788,16.3139322 L190.136788,16.3139322 Z" id="Logotype" fill="#5C5C5C"></path>
                        </g>
                    </g>
                </g>
            </g>
        </g>
    </g>
</svg>