<svg id="SvgjsSvg1000" xmlns="http://www.w3.org/2000/svg" version="1.1" xmlns:xlink="http://www.w3.org/1999/xlink" xmlns:svgjs="http://svgjs.com/svgjs" width="80" height="80" viewBox="0 0 80 80"><title>bg</title><desc>Created with Avocode.</desc><defs id="SvgjsDefs1001"><filter id="SvgjsFilter1008" width="200%" height="200%" x="-50%" y="-50%"><feMorphology id="SvgjsFeMorphology1009" operator="dilate" radius="0" result="SvgjsFeMorphology1009Out" in="SourceGraphic"></feMorphology><feOffset id="SvgjsFeOffset1010" dx="0" dy="2" result="SvgjsFeOffset1010Out" in="SvgjsFeMorphology1009Out"></feOffset><feGaussianBlur id="SvgjsFeGaussianBlur1011" stdDeviation="6 " result="SvgjsFeGaussianBlur1011Out" in="SvgjsFeOffset1010Out"></feGaussianBlur><feComposite id="SvgjsFeComposite1012" in="SvgjsFeGaussianBlur1011Out" in2="SourceAlpha" operator="out" result="SvgjsFeComposite1012Out"></feComposite></filter></defs><path id="SvgjsPath1007" d="M512 458C512 442.53603 524.53603 430 540 430C555.46397 430 568 442.53603 568 458C568 473.46397 555.46397 486 540 486C524.53603 486 512 473.46397 512 458Z " fill="#000000" fill-opacity="0.08" filter="url(#SvgjsFilter1008)" transform="matrix(1,0,0,1,-500,-420)"></path><path id="SvgjsPath1013" d="M512 458C512 442.53603 524.53603 430 540 430C555.46397 430 568 442.53603 568 458C568 473.46397 555.46397 486 540 486C524.53603 486 512 473.46397 512 458Z " fill="#ffffff" fill-opacity="1" transform="matrix(1,0,0,1,-500,-420)"></path><path id="SvgjsPath1014" d="M553.37 466.15L549.05 461.81C548.1899999999999 460.95 546.76 460.98 545.87 461.87L543.69 464.06C543.5500000000001 463.98 543.4100000000001 463.9 543.2600000000001 463.82C541.8900000000001 463.05 540.0000000000001 462 538.0200000000001 460.02C536.0300000000001 458.03 534.9900000000001 456.14 534.2200000000001 454.76C534.1400000000001 454.61 534.0700000000002 454.46999999999997 533.9900000000001 454.33L535.4500000000002 452.87L536.1700000000002 452.15C537.0600000000002 451.26 537.0900000000001 449.83 536.2300000000001 448.96L531.9000000000001 444.63C531.0400000000001 443.77 529.6200000000001 443.79 528.7200000000001 444.69L527.5100000000001 445.92L527.5400000000001 445.95C527.1300000000001 446.46999999999997 526.7900000000001 447.08 526.5400000000001 447.72999999999996C526.3000000000001 448.34 526.1600000000001 448.92999999999995 526.09 449.53C525.52 454.27 527.6800000000001 458.60999999999996 533.5500000000001 464.48999999999995C541.6700000000001 472.61999999999995 548.2 472.00999999999993 548.4900000000001 471.97999999999996C549.1000000000001 471.9 549.6900000000002 471.75999999999993 550.2900000000001 471.52C550.9300000000001 471.27 551.5300000000001 470.93 552.0500000000001 470.52L552.08 470.54999999999995L553.3100000000001 469.3299999999999C554.21 468.43999999999994 554.23 467.00999999999993 553.37 466.1499999999999Z " fill-opacity="0" fill="#ffffff" stroke-dashoffset="0" stroke-linejoin="miter" stroke-linecap="butt" stroke-opacity="1" stroke="#2796d1" stroke-miterlimit="50" stroke-width="2" transform="matrix(1,0,0,1,-500,-420)"></path></svg>