<?xml version="1.0" encoding="UTF-8"?>
<svg width="62px" height="62px" viewBox="0 0 62 62" version="1.1" xmlns="http://www.w3.org/2000/svg" xmlns:xlink="http://www.w3.org/1999/xlink">
    <!-- Generator: Sketch 42 (36781) - http://www.bohemiancoding.com/sketch -->
    <title>icon-4</title>
    <desc>Created with Sketch.</desc>
    <defs></defs>
    <g id="main" stroke="none" stroke-width="1" fill="none" fill-rule="evenodd">
        <g id="main-1920" transform="translate(-1334.000000, -439.000000)" stroke-width="2" stroke="#2796D1">
            <g id="Преимущества" transform="translate(0.000000, 420.000000)">
                <g id="04" transform="translate(1335.000000, 20.000000)">
                    <g id="icon-4">
                        <path d="M59.9603693,15.6300923 L59.9993216,13.7611031 C60.0060959,11.950898 59.9620629,10.0507878 59.8706098,8.1109118 C59.8604483,7.88787794 59.6233477,4.71007759 59.6233477,4.71007759 L59.5352817,3.50500313 L58.3819565,3.2404746 C39.5476981,-1.0801582 20.4543225,-1.0801582 1.62006408,3.2404746 L0.466738838,3.50500313 L0.376979312,4.71007759 C0.376979312,4.71007759 0.141572251,7.88787794 0.131410795,8.11264075 C-0.539245292,21.9701325 1.35247907,32.8088868 5.91327918,41.2444079 C7.63056522,44.4187504 12.5859685,52.3597934 22.5120173,60" id="icon"></path>
                        <g id="icon" transform="translate(17.000000, 13.000000)">
                            <path d="M34,15 C34,6.71572875 27.2842712,0 19,0 C10.7157288,0 4,6.71572875 4,15" id="Oval-3"></path>
                            <path d="M34,38.7011535 C34,31.4421755 28.843732,25.3875085 21.9940437,24" id="Oval-3-Copy" transform="translate(27.997022, 31.350577) scale(1, -1) translate(-27.997022, -31.350577) "></path>
                            <path d="M0,16.9973917 C0,15.8942627 0.898260623,15 1.99791312,15 L6,15 L6,24 L1.99791312,24 C0.894496173,24 0,23.1041422 0,22.0026083 L0,16.9973917 Z" id="Rectangle-3"></path>
                            <path d="M33,16.9973917 C33,15.8942627 33.8982606,15 34.9979131,15 L39,15 L39,24 L34.9979131,24 C33.8944962,24 33,23.1041422 33,22.0026083 L33,16.9973917 Z" id="Rectangle-3-Copy" transform="translate(36.000000, 19.500000) scale(-1, 1) translate(-36.000000, -19.500000) "></path>
                            <rect id="Rectangle-4" x="16" y="37" width="6" height="4" rx="2"></rect>
                        </g>
                    </g>
                </g>
            </g>
        </g>
    </g>
</svg>